<?xml version="1.0" encoding="UTF-8" standalone="no"?>
<svg
   width="216.70779"
   height="40.787449"
   viewBox="0 0 216.7078 40.787449"
   xmlns="http://www.w3.org/2000/svg"
   xmlnsSvg="http://www.w3.org/2000/svg">
  <g transform="translate(-0.52828508,-6.6009078)">
    <g transform="translate(-3.1043113,61.314494)">
      <path
         style="fill:#131a47;fill-opacity:1"
         d="m 3.644354,-14.423348 c 0.1855672,-0.313826 1.2102773,-1.602368 2.2771336,-2.863426 3.198098,-3.780255 2.7214504,-3.707167 24.1766244,-3.707167 h 18.702117 c 1.359138,-0.0441 3.25372,-2.641489 3.022223,-4.888889 -0.225001,-2.184331 -1.475313,-4.737415 -3.022223,-4.888889 h -15.6 c -8.58,0 -15.600001,-0.160076 -15.600001,-0.355725 0,-0.674195 4.541151,-5.449235 5.80278,-6.101648 1.02154,-0.528259 3.580246,-0.653738 13.330705,-0.653738 h 12.066516 c 0,0 2.430648,-0.333904 5.233635,-0.109144 2.802987,0.224759 0.611571,1.681219 1.689972,3.117836 0.347638,0.463114 0.602518,0.837836 1.445594,2.654634 1.628083,3.508457 2.342044,7.438905 0.783291,10.843669 -1.267238,2.768013 -3.247001,4.896609 -5.84829,6.287949 -1.820239,0.973583 -2.058545,0.984021 -25.317503,1.108982 -19.0193698,0.102184 -23.4158725,0.01775 -23.142574,-0.444444 z m 65.752847,-0.08931 c -2.679774,-0.745377 -5.702266,-3.711777 -6.42155,-6.302379 -0.264866,-0.953953 -0.48269,-5.18446 -0.484053,-9.401126 l -0.0025,-7.666667 h 2.029218 c 4.086452,0 4.637449,1.162502 4.637449,9.784162 0,5.494146 0.09094,6.211574 0.921147,7.267012 0.720372,0.915805 1.307971,1.171048 2.695885,1.171048 3.875702,0 4.376971,-1.284183 4.380489,-11.222222 l 0.0025,-7 h 2.222222 c 1.62963,0 2.45926,0.237037 3.111112,0.888889 0.816559,0.816559 0.888889,1.481481 0.888889,8.17147 0,7.111627 -0.02919,7.338467 -1.243683,9.663263 -1.029624,1.970926 -1.660719,2.589809 -3.666667,3.595718 -2.98243,1.495579 -6.151538,1.862726 -9.070458,1.050832 z m 31.501749,0.12676 c -2.10299,-0.473274 -4.266812,-2.537283 -5.016893,-4.785475 -0.306354,-0.918224 -0.504048,-4.883933 -0.504048,-10.111112 v -8.600345 h 1.489234 c 2.260136,0 4.109317,0.808683 4.671727,2.043035 0.30757,0.675044 0.50571,3.773773 0.50571,7.908994 0,8.593661 -0.0671,8.498678 5.77025,8.165846 l 4.00752,-0.228498 v 1.623087 c 0,0.892697 -0.30589,2.059815 -0.67977,2.593594 -1.21337,1.732326 -5.89932,2.368575 -10.24373,1.390874 z m 17.36795,-0.164904 c -0.97778,-0.345926 -2.22778,-1.1483 -2.77778,-1.783053 -0.97148,-1.121184 -1,-1.431762 -1,-10.889961 v -9.735864 l 1.88333,-0.507128 c 2.7581,-0.742678 10.85566,-0.350945 12.66623,0.612749 5.36378,2.854933 7.53011,8.577892 5.64715,14.918511 -0.97887,3.296204 -4.04774,6.39258 -7.27738,7.342614 -2.94874,0.867406 -6.75923,0.884968 -9.14155,0.04213 z m 7.11565,-5.305283 c 3.14753,-1.315122 4.37192,-6.239689 2.47555,-9.956868 -1.00557,-1.971093 -2.45105,-2.736544 -5.16767,-2.736544 h -1.97909 v 5.806997 c 0,3.193848 0.20704,6.193848 0.46008,6.666666 0.54997,1.027625 2.0858,1.107769 4.21113,0.219749 z m -37.927068,4.500166 C 86.518287,-16.353517 86.48912,-16.709002 86.48912,-27.133697 V -37.88283 h 1.756865 c 2.272665,0 3.799228,0.715493 4.416348,2.069922 0.315854,0.693224 0.493454,4.754586 0.493454,11.284324 v 10.20131 h -2.366972 c -1.899515,0 -2.55782,-0.203149 -3.333333,-1.028645 z"
      />
      <path
         style="fill:#719c40;fill-opacity:1"
         d="m 48.881962,-37.876703 c 2.085005,-0.894015 3.15772,-2.755162 3.193727,-4.751914 0.03255,-1.804991 -0.866952,-4.089829 -2.527631,-4.689092 -0.698491,-0.252054 -3.805509,-0.634638 -9.286088,-0.781216 l -8.381037,0.09711 2.084608,-2.763775 c 2.9903,-3.964543 3.813322,-4.075425 10.60531,-3.900569 6.533068,0.16819 8.661843,1.118941 11.133728,3.619532 2.167594,2.192767 3.071047,4.503663 3.069371,8.281037 -0.0014,3.250079 -0.946869,5.358294 -2.858344,8.226595 -0.579146,-0.737341 -1.595253,-1.783915 -2.870729,-2.38281 -1.509793,-0.708917 -1.627424,-0.773409 -4.162915,-0.954896 z m 97.688888,23.755818 c -0.36667,-0.07759 -1.41078,-0.262347 -2.32025,-0.410574 -2.10452,-0.342996 -4.24431,-2.138552 -5.28879,-4.437968 -0.65778,-1.448098 -0.81572,-2.915803 -0.81504,-7.573943 4.6e-4,-3.177777 0.1862,-6.577777 0.41275,-7.555555 0.72383,-3.124041 1.32761,-3.333334 9.61612,-3.333334 h 7.2841 v 1.555556 c 0,2.751209 -1.07833,3.333333 -6.17467,3.333333 -4.78402,0 -4.93644,0.08346 -4.93644,2.703017 v 1.296983 h 4.44444 4.44445 v 1.984363 c 0,2.549662 -0.64804,2.904526 -5.30412,2.904526 h -3.58477 v 1.301588 c 0,2.650578 1.86719,3.40377 7.38636,2.979533 l 3.72475,-0.286307 v 1.695425 c 0,0.932483 -0.25,2.03146 -0.55556,2.44217 -0.80847,1.086711 -5.82964,1.930982 -8.33333,1.401187 z m 18.55681,-0.190672 c -2.95498,-0.532197 -4.99964,-1.933226 -6.08083,-4.166672 -0.79641,-1.645154 -0.92009,-2.735783 -0.91794,-8.094351 10e-4,-3.406157 0.20913,-6.937115 0.46171,-7.846575 0.77785,-2.800751 1.46099,-3.013104 9.69322,-3.013104 h 7.29296 l -0.24567,1.831593 c -0.13512,1.007377 -0.47053,2.057377 -0.74536,2.333334 -0.27717,0.27831 -2.6183,0.600698 -5.25729,0.723962 l -4.75761,0.222223 -0.13666,1.888888 -0.13667,1.888889 h 4.47 4.47 v 1.746032 c 0,2.677949 -0.76076,3.142857 -5.14286,3.142857 h -3.74603 v 1.248387 c 0,0.686613 0.2853,1.636613 0.63399,2.111111 0.56475,0.768505 1.17149,0.858429 5.55556,0.823395 l 4.92156,-0.03933 -0.007,1.594885 c -0.008,1.833782 -0.29173,2.379279 -1.59513,3.064895 -1.31098,0.689607 -6.2144,0.992671 -8.73015,0.53958 z m 14.88117,-0.470276 c -0.55355,-0.222388 -1.21463,-0.95186 -1.46905,-1.621048 -0.77601,-2.041066 0.52633,-4.365605 5.68129,-10.140489 l 4.76081,-5.333333 -5.20551,-0.125216 -5.20552,-0.125215 v -1.960694 c 0,-3.108659 0.63567,-3.344431 9.017,-3.344431 7.4936,0 8.53349,0.233205 9.23197,2.070337 0.82871,2.179679 -0.22005,4.176692 -5.12036,9.75006 -2.55849,2.909893 -4.65908,5.440715 -4.66798,5.624048 -0.009,0.183333 2.38382,0.333333 5.31715,0.333333 4.8937,0 5.33333,0.06781 5.33333,0.822568 0,1.635331 -0.95623,3.509881 -2.04303,4.005061 -1.33274,0.607236 -14.13885,0.644122 -15.6301,0.04502 z m 28.4757,-0.611937 c -1.16231,-0.999781 -1.25766,-1.339329 -1.40401,-5 -0.15227,-3.808967 -0.21801,-4.019424 -2.18046,-6.980345 -1.1129,-1.679132 -2.68787,-4.579132 -3.49993,-6.444444 l -1.47649,-3.391477 2.42314,-0.132946 c 1.33273,-0.07312 2.81402,0.07625 3.29175,0.331925 0.47774,0.255678 1.72321,2.068753 2.7677,4.029055 1.04449,1.960302 2.10882,3.495696 2.36518,3.411986 0.25636,-0.08371 1.36611,-1.884132 2.46611,-4.000938 l 2,-3.848739 2.02222,-0.0063 c 3.74475,-0.01163 4.04186,1.82226 1.07488,6.634555 -1.10771,1.796646 -2.60771,4.01623 -3.33333,4.932409 -1.28362,1.620693 -1.31933,1.79938 -1.31933,6.601822 v 4.936043 h -1.97521 c -1.44724,0 -2.30854,-0.286715 -3.22222,-1.072623 z"
      />
    </g>
  </g>
</svg>
