<svg width="83" height="100" viewBox="0 0 83 100" fill="none" xmlns="http://www.w3.org/2000/svg">
<g opacity="0.3">
<path opacity="0.3" d="M57.6924 20.3426C55.4342 20.3405 53.2692 19.4424 51.6724 17.8456C50.0756 16.2488 49.1776 14.0837 49.1754 11.8255V0H11.1171C8.16917 0 5.34199 1.17109 3.2575 3.25558C1.17301 5.34007 0.00195313 8.16718 0.00195312 11.1151V78.1198C0.00633076 81.0649 1.17932 83.8878 3.26334 85.9687C5.34736 88.0497 8.17203 89.2185 11.1171 89.2185H56.8003C58.2603 89.219 59.7061 88.932 61.0551 88.3736C62.4041 87.8153 63.6299 86.9966 64.6625 85.9644C65.6951 84.9322 66.5142 83.7067 67.073 82.3579C67.6319 81.0091 67.9195 79.5634 67.9195 78.1034V20.3261L57.6924 20.3426Z" fill="#00C650"/>
</g>
<path d="M67.9197 20.3426H57.6926C55.4344 20.3405 53.2693 19.4424 51.6725 17.8456C50.0758 16.2488 49.1777 14.0837 49.1755 11.8255V0L67.9197 20.3426Z" fill="#00C650"/>
<path d="M75.9782 70.4702H24.3306C20.667 70.4702 17.697 73.4402 17.697 77.1038V92.5022C17.697 96.1658 20.667 99.1358 24.3306 99.1358H75.9782C79.6418 99.1358 82.6117 96.1658 82.6117 92.5022V77.1038C82.6117 73.4402 79.6418 70.4702 75.9782 70.4702Z" fill="#00C650"/>
<path d="M33.2483 88.0291V91.0237H30.1545V88.0291H33.2483Z" fill="white"/>
<path d="M44.3633 79.776C45.4086 80.622 46.1188 81.8124 46.3666 83.1341H43.2027C42.9916 82.5856 42.6185 82.1145 42.1329 81.7834C41.622 81.4484 41.0212 81.277 40.4105 81.2919C40.0078 81.2798 39.6077 81.3601 39.2411 81.527C38.8744 81.6939 38.551 81.9427 38.2957 82.2543C37.7281 82.9881 37.4423 83.9012 37.4902 84.8277C37.442 85.7504 37.7279 86.6596 38.2957 87.3885C38.552 87.6984 38.8758 87.9455 39.2424 88.1109C39.609 88.2762 40.0085 88.3555 40.4105 88.3426C41.0212 88.3575 41.622 88.1861 42.1329 87.8511C42.6183 87.5268 42.9941 87.0631 43.2109 86.5211H46.3749C46.1218 87.8385 45.4125 89.0247 44.3716 89.871C43.2548 90.7295 41.8717 91.1681 40.4642 91.1101C39.3556 91.1344 38.2611 90.8589 37.2961 90.3128C36.3919 89.7901 35.6599 89.015 35.1895 88.0824C34.6804 87.0698 34.4253 85.9485 34.4461 84.8152C34.4248 83.6806 34.6799 82.5578 35.1895 81.5438C35.6599 80.6113 36.3919 79.8362 37.2961 79.3134C38.2611 78.7673 39.3556 78.4919 40.4642 78.5163C41.8711 78.4679 43.2507 78.9135 44.3633 79.776Z" fill="white"/>
<path d="M56.437 89.3423C56.0809 89.9104 55.5711 90.3658 54.9665 90.6558C54.2307 91.0002 53.4243 91.1671 52.6121 91.1431C51.3891 91.1927 50.1839 90.837 49.1838 90.1312C48.7422 89.7992 48.3807 89.3722 48.1262 88.8818C47.8717 88.3913 47.7306 87.85 47.7134 87.2977H50.898C50.9201 87.7139 51.0986 88.1063 51.3978 88.3964C51.6937 88.6734 52.0872 88.822 52.4924 88.8095C52.8245 88.8264 53.1502 88.7139 53.4011 88.4955C53.5099 88.3879 53.5954 88.259 53.6522 88.1169C53.7091 87.9748 53.7361 87.8224 53.7315 87.6694C53.7354 87.5249 53.7103 87.381 53.6578 87.2462C53.6053 87.1114 53.5265 86.9886 53.4258 86.8847C53.2089 86.6643 52.9506 86.4889 52.6658 86.3684C52.3602 86.2321 51.943 86.0709 51.406 85.885C50.7505 85.6694 50.1102 85.41 49.4895 85.1086C48.9794 84.8448 48.5413 84.4606 48.2132 83.9892C47.8358 83.4173 47.6493 82.7405 47.6803 82.0561C47.6635 81.3775 47.8584 80.7106 48.238 80.1478C48.6283 79.5981 49.1649 79.1688 49.7869 78.9087C50.5066 78.6175 51.2784 78.4769 52.0545 78.4956C53.228 78.4335 54.3867 78.7793 55.3341 79.4745C55.7385 79.8024 56.0696 80.2115 56.3058 80.6754C56.542 81.1394 56.6782 81.6477 56.7055 82.1676H53.4713C53.4315 81.8043 53.275 81.4638 53.0252 81.197C52.896 81.0747 52.7434 80.9797 52.5766 80.918C52.4098 80.8562 52.2322 80.8289 52.0545 80.8376C51.7458 80.8218 51.4423 80.922 51.2036 81.1184C51.092 81.2236 51.0051 81.3523 50.9494 81.4952C50.8936 81.6381 50.8704 81.7916 50.8815 81.9445C50.878 82.0815 50.9017 82.2177 50.9513 82.3454C51.001 82.473 51.0755 82.5895 51.1706 82.6881C51.3753 82.9036 51.623 83.0739 51.8976 83.1878C52.1867 83.3159 52.608 83.4812 53.1367 83.6794C53.8043 83.8942 54.4547 84.1593 55.0822 84.4724C55.5968 84.7492 56.0395 85.1424 56.375 85.6207C56.758 86.1996 56.9475 86.8851 56.9161 87.5786C56.9191 88.199 56.7535 88.8087 56.437 89.3423Z" fill="white"/>
<path d="M60.9018 78.6567L63.9295 87.9627L66.9571 78.6567H70.1582L65.8543 91.0235H61.9881L57.7007 78.6567H60.9018Z" fill="white"/>
<path d="M49.1094 62.2878H18.8123C16.1894 62.2878 14.0581 59.6773 14.0581 56.4637V34.4937C14.0581 31.2843 16.1894 28.6738 18.8123 28.6738H49.1094C51.7323 28.6738 53.8636 31.2843 53.8636 34.4937V56.4637C53.8636 59.6773 51.7323 62.2878 49.1094 62.2878ZM18.8123 31.6479C17.5318 31.6479 16.4868 32.9241 16.4868 34.4937V56.4637C16.4868 58.0333 17.5318 59.3097 18.8123 59.3097H49.1094C50.3899 59.3097 51.4307 58.0333 51.4307 56.4637V34.4937C51.4307 32.9241 50.3899 31.6479 49.1094 31.6479H18.8123Z" fill="#00C650"/>
<path d="M52.6492 49.0576H15.2725V52.0357H52.6492V49.0576Z" fill="#00C650"/>
<path d="M52.6492 38.8472H15.2725V41.8252H52.6492V38.8472Z" fill="#00C650"/>
<path d="M43.0789 30.1606H40.1008V60.7965H43.0789V30.1606Z" fill="#00C650"/>
<path d="M27.8211 30.1606H24.843V60.7965H27.8211V30.1606Z" fill="#00C650"/>
</svg>
