<svg width="83" height="100" viewBox="0 0 83 100" fill="none" xmlns="http://www.w3.org/2000/svg">
<g opacity="0.3">
<path opacity="0.3" d="M57.6905 20.7499C55.4323 20.7477 53.2672 19.8496 51.6704 18.2528C50.0737 16.656 49.1756 14.491 49.1734 12.2328V0.407227H11.1193C9.65928 0.406685 8.21344 0.693736 6.86441 1.25208C5.51538 1.81043 4.28962 2.62911 3.25704 3.6613C2.22447 4.69348 1.40536 5.91899 0.846518 7.26781C0.287671 8.61662 -1.00809e-07 10.0623 0 11.5223V78.527C-1.00809e-07 79.9871 0.287671 81.4328 0.846518 82.7817C1.40536 84.1305 2.22447 85.356 3.25704 86.3882C4.28962 87.4204 5.51538 88.2389 6.86441 88.7973C8.21344 89.3556 9.65928 89.6428 11.1193 89.6422H56.8024C58.2621 89.6422 59.7075 89.3548 61.056 88.7962C62.4046 88.2376 63.6299 87.4188 64.6621 86.3867C65.6942 85.3545 66.5129 84.1292 67.0715 82.7807C67.6301 81.4321 67.9176 79.9867 67.9176 78.527V20.7499H57.6905Z" fill="#0072FF"/>
</g>
<path d="M67.9177 20.7499H57.6906C55.4324 20.7477 53.2674 19.8496 51.6706 18.2528C50.0738 16.656 49.1758 14.491 49.1736 12.2328V0.407227L67.9177 20.7499Z" fill="#0072FF"/>
<path d="M53.9443 34.9917H11.3012C10.8914 34.9917 10.4985 34.8289 10.2088 34.5392C9.91912 34.2495 9.75635 33.8566 9.75635 33.4469C9.75581 33.2437 9.79538 33.0423 9.87278 32.8544C9.95017 32.6665 10.0639 32.4957 10.2074 32.3518C10.3509 32.208 10.5214 32.0938 10.7091 32.0159C10.8968 31.938 11.0979 31.8979 11.3012 31.8979H53.9443C54.3551 31.8979 54.7491 32.0612 55.0396 32.3516C55.3301 32.6421 55.4933 33.0361 55.4933 33.4469C55.4922 33.857 55.3285 34.2499 55.0381 34.5395C54.7477 34.8291 54.3544 34.9917 53.9443 34.9917Z" fill="#0072FF"/>
<path d="M53.9443 44.2317H11.3012C10.8914 44.2317 10.4985 44.0689 10.2088 43.7792C9.91912 43.4895 9.75635 43.0966 9.75635 42.6869C9.75581 42.4837 9.79538 42.2823 9.87278 42.0944C9.95017 41.9065 10.0639 41.7357 10.2074 41.5918C10.3509 41.4479 10.5214 41.3338 10.7091 41.2559C10.8968 41.178 11.0979 41.1379 11.3012 41.1379H53.9443C54.3551 41.1379 54.7491 41.301 55.0396 41.5915C55.3301 41.882 55.4933 42.2761 55.4933 42.6869C55.4922 43.097 55.3285 43.4898 55.0381 43.7794C54.7477 44.069 54.3544 44.2317 53.9443 44.2317Z" fill="#0072FF"/>
<path d="M53.9443 53.4714H11.3012C11.0979 53.4714 10.8968 53.4313 10.7091 53.3534C10.5214 53.2755 10.3509 53.1614 10.2074 53.0175C10.0639 52.8736 9.95017 52.7028 9.87278 52.5149C9.79538 52.327 9.75581 52.1257 9.75635 51.9225C9.75635 51.5128 9.91912 51.1199 10.2088 50.8302C10.4985 50.5405 10.8914 50.3777 11.3012 50.3777H53.9443C54.3544 50.3777 54.7477 50.5403 55.0381 50.8299C55.3285 51.1194 55.4922 51.5124 55.4933 51.9225C55.4933 52.3333 55.3301 52.7272 55.0396 53.0177C54.7491 53.3082 54.3551 53.4714 53.9443 53.4714Z" fill="#0072FF"/>
<path d="M37.125 62.7114H11.3012C11.0979 62.7114 10.8968 62.6713 10.7091 62.5934C10.5214 62.5155 10.3509 62.4013 10.2074 62.2574C10.0639 62.1135 9.95017 61.9428 9.87278 61.7549C9.79538 61.567 9.75581 61.3657 9.75635 61.1625C9.75635 60.7528 9.91912 60.3598 10.2088 60.0701C10.4985 59.7803 10.8914 59.6177 11.3012 59.6177H37.125C37.5347 59.6177 37.9276 59.7803 38.2173 60.0701C38.507 60.3598 38.6698 60.7528 38.6698 61.1625C38.6703 61.3657 38.6308 61.567 38.5534 61.7549C38.476 61.9428 38.3623 62.1135 38.2188 62.2574C38.0753 62.4013 37.9048 62.5155 37.7171 62.5934C37.5294 62.6713 37.3282 62.7114 37.125 62.7114Z" fill="#0072FF"/>
<path d="M75.9804 70.8772H24.3328C20.6691 70.8772 17.6992 73.8471 17.6992 77.5108V92.9092C17.6992 96.5728 20.6691 99.5428 24.3328 99.5428H75.9804C79.644 99.5428 82.6139 96.5728 82.6139 92.9092V77.5108C82.6139 73.8471 79.644 70.8772 75.9804 70.8772Z" fill="#0072FF"/>
<path d="M31.4826 88.5435V91.5463H28.3723V88.5435H31.4826Z" fill="white"/>
<path d="M43.4363 88.5517C42.9191 89.4909 42.1379 90.2578 41.1893 90.7574C40.1218 91.3034 38.9349 91.5745 37.7362 91.5463H33.0439V79.126H37.7362C38.9358 79.0963 40.1243 79.3615 41.1975 79.8984C42.1423 80.3889 42.9212 81.1476 43.4363 82.0793C43.9703 83.0708 44.2392 84.1834 44.2169 85.3093C44.2382 86.4391 43.9694 87.5554 43.4363 88.5517ZM40.2062 87.928C40.542 87.5834 40.8021 87.1725 40.97 86.7215C41.1378 86.2706 41.2097 85.7896 41.181 85.3093C41.2099 84.8296 41.1381 84.3492 40.9702 83.8989C40.8023 83.4486 40.5421 83.0384 40.2062 82.6947C39.4537 82.0349 38.4708 81.6993 37.4719 81.7612H36.0551V88.8574H37.4759C38.4727 88.9175 39.4532 88.5838 40.2062 87.928Z" fill="white"/>
<path d="M55.014 79.7497C55.959 80.2864 56.7401 81.0704 57.2733 82.0173C57.8321 83.0175 58.1171 84.1473 58.0994 85.2928C58.1183 86.4411 57.8334 87.5739 57.2733 88.5765C56.7383 89.5271 55.9544 90.314 55.0057 90.8524C54.0401 91.4038 52.9454 91.6889 51.8335 91.6785C50.7216 91.6883 49.6271 91.4033 48.6613 90.8524C47.7128 90.315 46.93 89.5279 46.3978 88.5765C45.8359 87.5746 45.5508 86.4413 45.5717 85.2928C45.5503 84.1469 45.8355 83.0161 46.3978 82.0173C46.9327 81.0702 47.7151 80.2863 48.6613 79.7497C49.6271 79.1988 50.7216 78.9138 51.8335 78.9236C52.948 78.9131 54.0454 79.1982 55.014 79.7497ZM49.4791 82.6823C48.8698 83.4112 48.5598 84.3442 48.6117 85.2928C48.5596 86.2377 48.8698 87.1668 49.4791 87.8909C49.7759 88.2135 50.1397 88.4671 50.5451 88.6341C50.9504 88.8011 51.3873 88.8773 51.8252 88.8574C52.2618 88.876 52.6971 88.7993 53.1009 88.6324C53.5047 88.4654 53.8672 88.2124 54.1631 87.8909C54.7753 87.1681 55.0885 86.2388 55.0387 85.2928C55.0883 84.3483 54.7784 83.42 54.1713 82.6947C53.8747 82.3719 53.5109 82.1181 53.1055 81.9511C52.7002 81.7841 52.2632 81.7079 51.8252 81.7281C51.3884 81.7081 50.9525 81.783 50.5474 81.9478C50.1424 82.1125 49.7779 82.3631 49.4791 82.6823Z" fill="white"/>
<path d="M69.3841 80.2493C70.4317 81.1017 71.1442 82.297 71.3957 83.6239H68.2152C68.0006 83.074 67.6248 82.6017 67.1371 82.2691C66.623 81.9344 66.0198 81.7631 65.4065 81.7776C65.0015 81.7646 64.5989 81.8451 64.2301 82.0127C63.8612 82.1803 63.5359 82.4306 63.2793 82.7442C62.7041 83.4798 62.4111 84.397 62.4532 85.3299C62.4111 86.2589 62.7043 87.1722 63.2793 87.9031C63.5379 88.2135 63.864 88.4607 64.2326 88.6261C64.6012 88.7914 65.0027 88.8704 65.4065 88.8572C66.02 88.8736 66.6238 88.7021 67.1371 88.3657C67.6221 88.0391 67.9977 87.5743 68.2152 87.0316H71.3957C71.1401 88.3546 70.4281 89.546 69.3841 90.398C68.2605 91.2558 66.8726 91.6941 65.4601 91.6371C64.3472 91.6606 63.2486 91.3837 62.2797 90.8357C61.3729 90.3087 60.6372 89.5314 60.1607 88.597C59.6487 87.5721 59.3936 86.4381 59.4173 85.2926C59.3939 84.1472 59.649 83.0133 60.1607 81.9883C60.6372 81.0539 61.3729 80.2766 62.2797 79.7496C63.2486 79.2016 64.3472 78.9247 65.4601 78.9482C66.8799 78.9106 68.2681 79.3709 69.3841 80.2493Z" fill="white"/>
</svg>
