<svg width="83" height="100" viewBox="0 0 83 100" fill="none" xmlns="http://www.w3.org/2000/svg">
<g opacity="0.3">
<path opacity="0.3" d="M57.6905 20.6141C55.4323 20.6119 53.2672 19.7139 51.6704 18.1171C50.0737 16.5203 49.1756 14.3552 49.1734 12.097V0.271485H11.1193C9.65928 0.270943 8.21344 0.557994 6.86441 1.11634C5.51538 1.67468 4.28957 2.49336 3.25699 3.52555C2.22442 4.55774 1.40531 5.78324 0.846467 7.13206C0.287621 8.48088 -1.00809e-07 9.92658 0 11.3866V78.3913C-1.00809e-07 79.8513 0.287621 81.2971 0.846467 82.6459C1.40531 83.9947 2.22442 85.2202 3.25699 86.2524C4.28957 87.2846 5.51538 88.1032 6.86441 88.6615C8.21344 89.2199 9.65928 89.507 11.1193 89.5065H56.8024C59.7504 89.5065 62.5775 88.3354 64.662 86.2509C66.7465 84.1664 67.9175 81.3392 67.9175 78.3913V20.6141H57.6905Z" fill="#0072FF"/>
</g>
<path d="M67.9175 20.6141H57.6904C55.4323 20.6119 53.2672 19.7139 51.6704 18.1171C50.0736 16.5203 49.1755 14.3552 49.1733 12.097V0.271484L67.9175 20.6141Z" fill="#0072FF"/>
<path d="M53.9443 34.8559H11.3012C10.8914 34.8559 10.4985 34.6932 10.2088 34.4035C9.91912 34.1138 9.75635 33.7208 9.75635 33.3111C9.75581 33.1079 9.79538 32.9066 9.87278 32.7187C9.95017 32.5308 10.0639 32.36 10.2074 32.2161C10.3509 32.0722 10.5213 31.9581 10.709 31.8802C10.8967 31.8023 11.0979 31.7622 11.3012 31.7622H53.9443C54.3551 31.7622 54.749 31.9254 55.0395 32.2159C55.33 32.5064 55.4932 32.9003 55.4932 33.3111C55.4921 33.7212 55.3284 34.1142 55.0381 34.4038C54.7477 34.6933 54.3544 34.8559 53.9443 34.8559Z" fill="#0072FF"/>
<path d="M53.9443 44.0959H11.3012C10.8914 44.0959 10.4985 43.9332 10.2088 43.6434C9.91912 43.3537 9.75635 42.9608 9.75635 42.5511C9.75581 42.3479 9.79538 42.1466 9.87278 41.9587C9.95017 41.7708 10.0639 41.6 10.2074 41.4561C10.3509 41.3122 10.5213 41.1981 10.709 41.1202C10.8967 41.0423 11.0979 41.0022 11.3012 41.0022H53.9443C54.3551 41.0022 54.749 41.1653 55.0395 41.4558C55.33 41.7463 55.4932 42.1403 55.4932 42.5511C55.4921 42.9612 55.3284 43.3541 55.0381 43.6437C54.7477 43.9332 54.3544 44.0959 53.9443 44.0959Z" fill="#0072FF"/>
<path d="M53.9443 53.3359H11.3012C11.0979 53.3359 10.8967 53.2958 10.709 53.2179C10.5213 53.14 10.3509 53.0259 10.2074 52.882C10.0639 52.7381 9.95017 52.5673 9.87278 52.3794C9.79538 52.1915 9.75581 51.9902 9.75635 51.787C9.75635 51.3773 9.91912 50.9844 10.2088 50.6947C10.4985 50.405 10.8914 50.2422 11.3012 50.2422H53.9443C54.3544 50.2422 54.7477 50.4048 55.0381 50.6944C55.3284 50.984 55.4921 51.3769 55.4932 51.787C55.4932 52.1978 55.33 52.5917 55.0395 52.8822C54.749 53.1727 54.3551 53.3359 53.9443 53.3359Z" fill="#0072FF"/>
<path d="M37.1167 62.5759H11.3012C11.0979 62.5759 10.8967 62.5358 10.709 62.4579C10.5213 62.38 10.3509 62.2658 10.2074 62.1219C10.0639 61.978 9.95017 61.8073 9.87278 61.6194C9.79538 61.4315 9.75581 61.2302 9.75635 61.027C9.75635 60.6173 9.91912 60.2243 10.2088 59.9346C10.4985 59.6448 10.8914 59.4822 11.3012 59.4822H37.1167C37.5264 59.4822 37.9193 59.6448 38.209 59.9346C38.4987 60.2243 38.6615 60.6173 38.6615 61.027C38.662 61.2302 38.6224 61.4315 38.5451 61.6194C38.4677 61.8073 38.354 61.978 38.2105 62.1219C38.067 62.2658 37.8965 62.38 37.7088 62.4579C37.5211 62.5358 37.3199 62.5759 37.1167 62.5759Z" fill="#0072FF"/>
<path d="M75.9804 70.7417H24.3328C20.6692 70.7417 17.6992 73.7116 17.6992 77.3753V92.7737C17.6992 96.4373 20.6692 99.4073 24.3328 99.4073H75.9804C79.644 99.4073 82.6139 96.4373 82.6139 92.7737V77.3753C82.6139 73.7116 79.644 70.7417 75.9804 70.7417Z" fill="#0072FF"/>
<path d="M25.2701 88.4077V91.4106H22.1599V88.4077H25.2701Z" fill="white"/>
<path d="M37.2241 88.4161C36.7058 89.3544 35.9248 90.121 34.9771 90.6219C33.9095 91.1678 32.7227 91.4389 31.524 91.4107H26.8318V78.9905H31.524C32.7236 78.9613 33.912 79.2264 34.9854 79.7628C35.9302 80.2533 36.709 81.0121 37.2241 81.9437C37.7581 82.9352 38.0271 84.0478 38.0048 85.1738C38.026 86.3036 37.7572 87.4198 37.2241 88.4161ZM33.994 87.7924C34.3298 87.4478 34.59 87.0369 34.7578 86.586C34.9257 86.135 34.9976 85.6541 34.9689 85.1738C34.9978 84.6941 34.9259 84.2136 34.7581 83.7633C34.5902 83.313 34.3299 82.9029 33.994 82.5591C33.2415 81.8993 32.2586 81.5637 31.2597 81.6257H29.8388V88.7218H31.2597C32.2578 88.783 33.2399 88.4492 33.994 87.7924Z" fill="white"/>
<path d="M48.8019 79.614C49.7469 80.1507 50.528 80.9346 51.0612 81.8816C51.6202 82.8816 51.9052 84.0115 51.8873 85.157C51.9082 86.3055 51.6231 87.4389 51.0612 88.4408C50.529 89.3921 49.7462 90.1793 48.7977 90.7167C47.8321 91.2681 46.7374 91.5532 45.6255 91.5428C44.5136 91.5532 43.4189 91.2681 42.4533 90.7167C41.5049 90.1793 40.722 89.3921 40.1898 88.4408C39.6279 87.4389 39.3428 86.3055 39.3637 85.157C39.3422 84.0111 39.6275 82.8803 40.1898 81.8816C40.7247 80.9344 41.5071 80.1506 42.4533 79.614C43.4189 79.0625 44.5136 78.7775 45.6255 78.7879C46.7386 78.7781 47.8345 79.0631 48.8019 79.614ZM43.267 82.5466C42.6577 83.2754 42.3477 84.2084 42.3996 85.157C42.3475 86.1019 42.6577 87.0311 43.267 87.7551C43.5638 88.0777 43.9277 88.3314 44.333 88.4983C44.7383 88.6653 45.1752 88.7415 45.6131 88.7216C46.0496 88.7397 46.4848 88.6627 46.8885 88.4958C47.2922 88.3289 47.6547 88.0762 47.951 87.7551C48.5632 87.0323 48.8764 86.103 48.8266 85.157C48.8762 84.2125 48.5663 83.2842 47.9592 82.559C47.6626 82.2361 47.2988 81.9823 46.8934 81.8153C46.4881 81.6484 46.051 81.5722 45.6131 81.5924C45.1763 81.5723 44.7404 81.6473 44.3353 81.812C43.9303 81.9767 43.5658 82.2273 43.267 82.5466Z" fill="white"/>
<path d="M63.1718 80.1138C64.2194 80.9662 64.9319 82.1615 65.1833 83.4884H62.0029C61.7883 82.9385 61.4125 82.4662 60.9248 82.1336C60.4107 81.7989 59.8074 81.6276 59.1941 81.6421C58.7892 81.6291 58.3866 81.7096 58.0178 81.8772C57.6489 82.0448 57.3236 82.2951 57.067 82.6087C56.4921 83.3445 56.1991 84.2615 56.2409 85.1944C56.1988 86.1234 56.492 87.0367 57.067 87.7676C57.3256 88.078 57.6517 88.3252 58.0203 88.4906C58.3889 88.6559 58.7903 88.7349 59.1941 88.7217C59.8076 88.7381 60.4115 88.5666 60.9248 88.2302C61.4098 87.9036 61.7854 87.4388 62.0029 86.8961H65.1833C64.9277 88.2191 64.2158 89.4105 63.1718 90.2625C62.0482 91.1203 60.6603 91.5586 59.2478 91.5016C58.1349 91.5251 57.0363 91.2482 56.0674 90.7002C55.1606 90.1732 54.4249 89.3959 53.9484 88.4615C53.4352 87.4369 53.1786 86.3029 53.2008 85.1571C53.1787 84.0114 53.4353 82.8774 53.9484 81.8528C54.4249 80.9184 55.1606 80.1411 56.0674 79.6141C57.0363 79.0661 58.1349 78.7892 59.2478 78.8127C60.6676 78.7751 62.0558 79.2354 63.1718 80.1138Z" fill="white"/>
<path d="M74.4067 91.4108L71.7879 87.5447L69.5409 91.4108H66.0961L70.0696 85.0168L65.9763 78.9905H69.5409L72.0895 82.7326L74.2827 78.9905H77.711L73.7912 85.244L77.9713 91.4108H74.4067Z" fill="white"/>
</svg>
