<svg width="198" height="237" viewBox="0 0 198 237" fill="none" xmlns="http://www.w3.org/2000/svg">
<g opacity="0.14">
<path d="M-66.0845 3.35386C-56.8762 0.660762 -17.3107 -18.9004 36.3372 12.9494C103.397 52.7617 118.256 161.893 238.068 150.158" stroke="white"/>
<path d="M-76 60.951C-66.7917 58.2579 -27.2263 38.6968 26.4217 70.5466C93.4816 110.359 108.34 219.491 228.152 207.756" stroke="white"/>
<path d="M-73.6051 47.0897C-64.3968 44.3966 -24.8314 24.8354 28.8166 56.6853C95.8765 96.4975 110.735 205.629 230.547 193.894" stroke="white"/>
<path d="M-71.2815 33.215C-62.0147 30.2976 -22.1411 9.55273 31.5069 41.4025C98.5668 81.2148 112.707 193.105 233.112 179.091" stroke="white"/>
<path d="M-68.5911 17.9329C-59.3536 15.1276 -19.634 -5.02539 34.014 26.8244C101.074 66.6367 115.574 177.147 235.682 164.273" stroke="white"/>
</g>
</svg>
