<svg width="46" height="46" viewBox="0 0 46 46" fill="none" xmlns="http://www.w3.org/2000/svg">
<rect width="46" height="46" rx="23" fill="#709A1C" fill-opacity="0.1"/>
<path d="M23 27C24.6569 27 26 25.6569 26 24C26 22.3431 24.6569 21 23 21C21.3431 21 20 22.3431 20 24C20 25.6569 21.3431 27 23 27Z" stroke="#709A1C" stroke-width="1.5"/>
<path d="M13 24.364C13 21.299 13 19.767 13.749 18.667C14.0746 18.189 14.4912 17.7799 14.975 17.463C15.695 16.99 16.597 16.821 17.978 16.761C18.637 16.761 19.204 16.271 19.333 15.636C19.4316 15.1709 19.6877 14.7541 20.0582 14.456C20.4286 14.1579 20.8905 13.9969 21.366 14H24.634C25.622 14 26.473 14.685 26.667 15.636C26.796 16.271 27.363 16.761 28.022 16.761C29.402 16.821 30.304 16.991 31.025 17.463C31.51 17.781 31.927 18.19 32.251 18.667C33 19.767 33 21.299 33 24.364C33 27.429 33 28.96 32.251 30.061C31.9254 30.5391 31.5088 30.9482 31.025 31.265C29.904 32 28.343 32 25.222 32H20.778C17.657 32 16.096 32 14.975 31.265C14.4914 30.9478 14.0752 30.5383 13.75 30.06C13.5327 29.7364 13.3727 29.3779 13.277 29M30 21H29" stroke="#709A1C" stroke-width="1.5" stroke-linecap="round"/>
</svg>
