<svg width="84" height="83" viewBox="0 0 84 83" fill="none" xmlns="http://www.w3.org/2000/svg">
<rect x="0.747559" width="82.505" height="83" rx="41.2525" fill="#709A1C" fill-opacity="0.1"/>
<path d="M61.2512 58.1738L25.0957 22L22.7489 24.3285L31.4028 32.9823C30.4114 34.8323 29.8889 36.8972 29.881 38.996V49.9967L26.2141 53.6636V55.497H53.9174L58.9227 60.5023L61.2512 58.1738ZM33.5479 51.8301V38.996C33.5479 37.8776 33.7496 36.7776 34.1713 35.7508L50.2506 51.8301H33.5479ZM39.0482 57.3305H46.382C46.382 58.303 45.9957 59.2357 45.308 59.9233C44.6203 60.611 43.6876 60.9973 42.7151 60.9973C41.7426 60.9973 40.8099 60.611 40.1222 59.9233C39.4345 59.2357 39.0482 58.303 39.0482 57.3305ZM35.913 28.1604C36.8848 27.537 37.9482 27.0786 39.0482 26.6936V26.1619C39.0482 25.1894 39.4345 24.2567 40.1222 23.569C40.8099 22.8814 41.7426 22.495 42.7151 22.495C43.6876 22.495 44.6203 22.8814 45.308 23.569C45.9957 24.2567 46.382 25.1894 46.382 26.1619V26.6936C51.8273 28.307 55.5492 33.3123 55.5492 38.996V47.7966L51.8823 44.1297V38.996C51.8823 36.5647 50.9165 34.233 49.1973 32.5138C47.4781 30.7946 45.1464 29.8288 42.7151 29.8288C41.285 29.8288 39.8733 30.1955 38.6082 30.8555L35.913 28.1604Z" fill="#709A1C"/>
</svg>
