<svg width="83" height="100" viewBox="0 0 83 100" fill="none" xmlns="http://www.w3.org/2000/svg">
<g opacity="0.3">
<path opacity="0.3" d="M57.6924 20.4784C55.4342 20.4762 53.2692 19.5781 51.6724 17.9813C50.0756 16.3845 49.1776 14.2195 49.1754 11.9613V0.135742H11.1171C8.16916 0.135742 5.342 1.30683 3.25751 3.39132C1.17302 5.47581 0.00195312 8.30292 0.00195312 11.2508V78.2556C0.00633076 81.2006 1.17931 84.0236 3.26333 86.1045C5.34735 88.1854 8.17202 89.3542 11.1171 89.3542H56.8044C59.7494 89.3542 62.5741 88.1854 64.6581 86.1045C66.7422 84.0236 67.9151 81.2006 67.9195 78.2556V20.4784H57.6924Z" fill="#FF3E4C"/>
</g>
<path d="M67.9197 20.4784H57.6926C55.4344 20.4762 53.2693 19.5781 51.6725 17.9813C50.0757 16.3846 49.1777 14.2195 49.1755 11.9613V0.135742L67.9197 20.4784Z" fill="#FF3E4C"/>
<path d="M53.9462 62.4399H11.3031C10.8923 62.4399 10.4983 62.2767 10.2078 61.9862C9.91733 61.6958 9.75415 61.3018 9.75415 60.891C9.75524 60.4809 9.91891 60.088 10.2093 59.7984C10.4996 59.5088 10.893 59.3462 11.3031 59.3462H53.9462C54.3559 59.3462 54.7488 59.5089 55.0386 59.7986C55.3283 60.0883 55.491 60.4813 55.491 60.891C55.4915 61.0942 55.452 61.2955 55.3746 61.4834C55.2972 61.6713 55.1835 61.842 55.04 61.9859C54.8965 62.1298 54.726 62.244 54.5383 62.3219C54.3507 62.3998 54.1494 62.4399 53.9462 62.4399Z" fill="#FF3E4C"/>
<path d="M53.9462 44.9929H11.3031C10.893 44.9929 10.4996 44.8302 10.2093 44.5406C9.91891 44.251 9.75524 43.8582 9.75415 43.4481C9.75415 43.0373 9.91733 42.6432 10.2078 42.3528C10.4983 42.0623 10.8923 41.8992 11.3031 41.8992H53.9462C54.1494 41.8992 54.3507 41.9393 54.5383 42.0172C54.726 42.095 54.8965 42.2092 55.04 42.3531C55.1835 42.4969 55.2972 42.6678 55.3746 42.8557C55.452 43.0436 55.4915 43.2449 55.491 43.4481C55.491 43.8578 55.3283 44.2507 55.0386 44.5404C54.7488 44.8301 54.3559 44.9929 53.9462 44.9929Z" fill="#FF3E4C"/>
<path d="M53.9462 53.7165H11.3031C10.8923 53.7165 10.4983 53.5533 10.2078 53.2628C9.91733 52.9724 9.75415 52.5784 9.75415 52.1676C9.75524 51.7575 9.91891 51.3646 10.2093 51.075C10.4996 50.7854 10.893 50.6228 11.3031 50.6228H53.9462C54.3559 50.6228 54.7488 50.7856 55.0386 51.0753C55.3283 51.365 55.491 51.7579 55.491 52.1676C55.4915 52.3708 55.452 52.5721 55.3746 52.76C55.2972 52.9479 55.1835 53.1188 55.04 53.2626C54.8965 53.4065 54.726 53.5207 54.5383 53.5985C54.3507 53.6764 54.1494 53.7165 53.9462 53.7165Z" fill="#FF3E4C"/>
<path d="M37.1269 36.2693H11.3031C10.893 36.2693 10.4996 36.1067 10.2093 35.8171C9.91891 35.5275 9.75524 35.1346 9.75415 34.7245C9.75415 34.3137 9.91733 33.9197 10.2078 33.6292C10.4983 33.3387 10.8923 33.1755 11.3031 33.1755H37.1269C37.537 33.1766 37.9299 33.3403 38.2195 33.6306C38.5091 33.921 38.6717 34.3144 38.6717 34.7245C38.6706 35.1338 38.5075 35.5261 38.218 35.8156C37.9285 36.105 37.5363 36.2682 37.1269 36.2693Z" fill="#FF3E4C"/>
<path d="M37.1269 27.5456H11.3031C10.893 27.5456 10.4996 27.3829 10.2093 27.0934C9.91891 26.8038 9.75524 26.4109 9.75415 26.0008C9.75415 25.59 9.91733 25.196 10.2078 24.9055C10.4983 24.615 10.8923 24.4519 11.3031 24.4519H37.1269C37.537 24.453 37.9299 24.6166 38.2195 24.907C38.5091 25.1974 38.6717 25.5907 38.6717 26.0008C38.6706 26.4102 38.5075 26.8025 38.218 27.0919C37.9285 27.3814 37.5363 27.5445 37.1269 27.5456Z" fill="#FF3E4C"/>
<path d="M75.9782 70.6062H24.3306C20.667 70.6062 17.697 73.5761 17.697 77.2398V92.6382C17.697 96.3018 20.667 99.2718 24.3306 99.2718H75.9782C79.6418 99.2718 82.6117 96.3018 82.6117 92.6382V77.2398C82.6117 73.5761 79.6418 70.6062 75.9782 70.6062Z" fill="#FF3E4C"/>
<path d="M34.6403 88.272V91.2748H31.5342V88.272H34.6403Z" fill="white"/>
<path d="M39.2087 86.9175V91.275H36.2058V78.8547H41.0715C42.5461 78.8547 43.6737 79.2223 44.4461 79.9534C44.837 80.3375 45.1421 80.7999 45.3414 81.3103C45.5408 81.8208 45.6298 82.3676 45.6027 82.9149C45.6177 83.6371 45.4394 84.3501 45.0864 84.9802C44.7258 85.5962 44.1912 86.092 43.5498 86.4053C42.7762 86.7709 41.9268 86.9479 41.0715 86.9216L39.2087 86.9175ZM42.5461 82.9149C42.5461 81.8135 41.9431 81.2627 40.737 81.2627H39.2087V84.4969H40.737C41.9431 84.508 42.5461 83.9806 42.5461 82.9149Z" fill="white"/>
<path d="M57.4695 88.2803C56.9523 89.2195 56.1711 89.9864 55.2225 90.486C54.1551 91.0325 52.9682 91.3036 51.7694 91.2749H47.0813V78.8546H51.7694C52.9691 78.8244 54.1577 79.0896 55.2308 79.627C56.1767 80.1159 56.956 80.875 57.4695 81.8079C58.0069 82.7982 58.2774 83.9114 58.2543 85.0379C58.2767 86.1683 58.0063 87.2853 57.4695 88.2803ZM54.2394 87.6566C54.5752 87.312 54.8353 86.9011 55.0032 86.4501C55.171 85.9992 55.2429 85.5182 55.2142 85.0379C55.2431 84.5582 55.1713 84.0777 55.0034 83.6275C54.8355 83.1772 54.5753 82.767 54.2394 82.4233C53.4882 81.7641 52.5068 81.4286 51.5092 81.4898H50.0842V88.586H51.5092C52.506 88.6465 53.4866 88.3127 54.2394 87.6566Z" fill="white"/>
<path d="M68.056 78.8547V81.2463H62.9631V83.9682H66.8953V86.2524H62.9631V91.275H59.9561V78.8547H68.056Z" fill="white"/>
<path d="M53.1905 24.4519H45.8878C44.6149 24.4519 43.583 25.4838 43.583 26.7567V34.0594C43.583 35.3323 44.6149 36.3642 45.8878 36.3642H53.1905C54.4634 36.3642 55.4953 35.3323 55.4953 34.0594V26.7567C55.4953 25.4838 54.4634 24.4519 53.1905 24.4519Z" fill="#FF3E4C"/>
</svg>
