<?xml version="1.0" encoding="UTF-8" standalone="no"?>
<svg
   width="83"
   height="100"
   viewBox="0 0 83 100"
   fill="none"
   version="1.1"
   id="svg12"
   xmlns="http://www.w3.org/2000/svg"
   xmlnsSvg="http://www.w3.org/2000/svg">
  <defs
     id="defs12" />
  <g
     opacity="0.3"
     id="g1"
     style="fill:#ff6600">
    <path
       opacity="0.3"
       d="m 57.6905,20.6141 c -2.2582,-0.0022 -4.4233,-0.9002 -6.0201,-2.497 -1.5967,-1.5968 -2.4948,-3.7619 -2.497,-6.0201 V 0.271485 H 11.1193 C 9.65928,0.270943 8.21344,0.557994 6.86441,1.11634 5.51538,1.67468 4.28957,2.49336 3.25699,3.52555 2.22442,4.55774 1.40531,5.78324 0.846467,7.13206 0.287621,8.48088 -1.00809e-7,9.92658 0,11.3866 v 67.0047 c -1.00809e-7,1.46 0.287621,2.9058 0.846467,4.2546 0.558843,1.3488 1.377953,2.5743 2.410523,3.6065 1.03258,1.0322 2.25839,1.8508 3.60742,2.4091 1.34903,0.5584 2.79487,0.8455 4.25489,0.845 h 45.6831 c 2.948,0 5.7751,-1.1711 7.8596,-3.2556 2.0845,-2.0845 3.2555,-4.9117 3.2555,-7.8596 V 20.6141 Z"
       fill="#0072ff"
       id="path1"
       style="fill:#ff6600" />
  </g>
  <path
     d="M 67.9175,20.6141 H 57.6904 c -2.2581,-0.0022 -4.4232,-0.9002 -6.02,-2.497 -1.5968,-1.5968 -2.4949,-3.7619 -2.4971,-6.0201 V 0.271484 Z"
     fill="#0072ff"
     id="path2"
     style="fill:#ff6600" />
  <path
     d="M 53.9443,55.3359 H 11.3012 c -0.2033,0 -0.4045,-0.0401 -0.5922,-0.118 C 10.5213,55.14 10.3509,55.0259 10.2074,54.882 10.0639,54.7381 9.95017,54.5673 9.87278,54.3794 9.79538,54.1915 9.75581,53.9902 9.75635,53.787 c 0,-0.4097 0.16277,-0.8026 0.45245,-1.0923 0.2897,-0.2897 0.6826,-0.4525 1.0924,-0.4525 h 42.6431 c 0.4101,0 0.8034,0.1626 1.0938,0.4522 0.2903,0.2896 0.454,0.6825 0.4551,1.0926 0,0.4108 -0.1632,0.8047 -0.4537,1.0952 -0.2905,0.2905 -0.6844,0.4537 -1.0952,0.4537 z"
     fill="#0072ff"
     id="path5"
     style="fill:#ff6600" />
  <path
     d="m 53.325598,62.5759 h -41.10919 c -0.32374,0 -0.644135,-0.0401 -0.943033,-0.118 C 10.974477,62.38 10.703129,62.2658 10.474616,62.1219 10.246103,61.978 10.064996,61.8073 9.941759,61.6194 9.8185055,61.4315 9.7554932,61.2302 9.7563532,61.027 c 0,-0.4097 0.2591988,-0.8027 0.7204908,-1.0924 0.461325,-0.2898 1.086988,-0.4524 1.739564,-0.4524 h 41.10919 c 0.652416,0 1.278078,0.1626 1.739403,0.4524 0.461325,0.2897 0.72057,0.6827 0.72057,1.0924 7.98e-4,0.2032 -0.06226,0.4045 -0.185356,0.5924 -0.123255,0.1879 -0.304313,0.3586 -0.532825,0.5025 -0.228513,0.1439 -0.500021,0.2581 -0.798918,0.336 -0.298899,0.0779 -0.619294,0.118 -0.942874,0.118 z"
     fill="#0072ff"
     id="path6"
     style="fill:#ff6600;stroke-width:1.26191" />
  <path
     d="M 75.9804,70.7417 H 24.3328 c -3.6636,0 -6.6336,2.9699 -6.6336,6.6336 v 15.3984 c 0,3.6636 2.97,6.6336 6.6336,6.6336 h 51.6476 c 3.6636,0 6.6335,-2.97 6.6335,-6.6336 V 77.3753 c 0,-3.6637 -2.9699,-6.6336 -6.6335,-6.6336 z"
     fill="#0072ff"
     id="path7"
     style="fill:#ff6600" />
  <path
     style="fill:#ff6600;stroke-width:1.5"
     id="path3"
     d="M 42.920518,31.810606 A 15.85348,15.85348 0 0 1 33.045458,46.493635 15.85348,15.85348 0 0 1 15.722537,42.884681 15.85348,15.85348 0 0 1 12.532491,25.479746 15.85348,15.85348 0 0 1 27.44945,15.961739 l -0.382412,15.848867 z" />
  <path
     style="fill:#aa4400;stroke-width:1.27003"
     id="path3-7"
     d="m 31.478794,14.268642 a 13.422925,13.422925 0 0 1 13.33583,13.277456 L 31.392485,27.69129 Z" />
  <path
     style="font-weight:bold;font-size:18.6667px;font-family:Montserrat;-inkscape-font-specification:'Montserrat Bold';letter-spacing:0px;fill:#ffffff;stroke-width:1.5"
     d="m 24.943329,91.672672 q -0.746668,0 -1.288002,-0.504001 -0.522668,-0.522668 -0.522668,-1.325336 0,-0.802668 0.522668,-1.288002 0.541334,-0.504001 1.288002,-0.504001 0.765335,0 1.288003,0.504001 0.522667,0.485334 0.522667,1.288002 0,0.802668 -0.522667,1.325336 -0.522668,0.504001 -1.288003,0.504001 z m 3.994658,-0.149334 v -13.06669 h 5.65601 q 1.75467,0 3.024006,0.578668 1.269335,0.560001 1.960003,1.624003 0.690668,1.064002 0.690668,2.538671 0,1.456003 -0.690668,2.520005 -0.690668,1.064001 -1.960003,1.642669 -1.269336,0.560001 -3.024006,0.560001 H 30.61799 l 1.344002,-1.362669 v 4.965342 z m 3.024005,-4.629341 -1.344002,-1.437336 h 3.808007 q 1.400002,0 2.09067,-0.597335 0.690668,-0.597334 0.690668,-1.661336 0,-1.082669 -0.690668,-1.680003 -0.690668,-0.597334 -2.09067,-0.597334 H 30.61799 l 1.344002,-1.437336 z m 10.453355,4.629341 v -13.06669 h 5.65601 q 1.75467,0 3.024005,0.578668 1.269336,0.560001 1.960004,1.624003 0.690668,1.064002 0.690668,2.538671 0,1.456003 -0.690668,2.520005 -0.690668,1.064001 -1.960004,1.642669 -1.269335,0.560001 -3.024005,0.560001 H 44.09535 l 1.344002,-1.362669 v 4.965342 z m 3.024005,-4.629341 -1.344002,-1.437336 h 3.808007 q 1.400002,0 2.09067,-0.597335 0.690668,-0.597334 0.690668,-1.661336 0,-1.082669 -0.690668,-1.680003 -0.690668,-0.597334 -2.09067,-0.597334 H 44.09535 l 1.344002,-1.437336 z m 12.812461,4.629341 V 80.920653 h -4.18134 V 78.456648 H 65.45716 v 2.464005 h -4.181341 v 10.602685 z m 6.776002,0 5.618677,-7.74668 v 2.20267 l -5.37601,-7.52268 h 3.434673 l 3.714674,5.245343 -1.437336,0.01867 3.658673,-5.26401 h 3.285339 l -5.338676,7.392013 v -2.165337 l 5.65601,7.840014 h -3.490673 l -3.84534,-5.54401 h 1.381336 l -3.789341,5.54401 z"
     id="text3"
     aria-label=".PPTX" />
</svg>
