<?xml version="1.0" encoding="UTF-8" standalone="no"?>
<svg
   width="82.609749"
   height="99.13163"
   viewBox="0 0 82.609749 99.13163"
   fill="none"
   version="1.1"
   id="svg10"
   xmlns="http://www.w3.org/2000/svg"
   xmlnsSvg="http://www.w3.org/2000/svg">
  <defs
     id="defs10" />
  <g
     opacity="0.3"
     id="g1"
     transform="translate(-0.00195312,-0.54296899)">
    <path
       opacity="0.3"
       d="m 57.6925,20.8815 c -2.2585,-0.0011 -4.4242,-0.8988 -6.0213,-2.4958 -1.597,-1.597 -2.4947,-3.7628 -2.4958,-6.0213 V 0.542969 H 11.1172 C 9.65715,0.542969 8.21145,0.83059 6.86263,1.38944 5.51381,1.94828 4.28821,2.76739 3.25602,3.79996 2.22383,4.83253 1.40525,6.05835 0.846908,7.40738 0.288563,8.75641 0.00141134,10.2022 0.00195389,11.6623 v 67.0005 c -5.4255e-4,1.46 0.28660911,2.9058 0.84495411,4.2549 0.558342,1.349 1.376922,2.5748 2.409112,3.6074 1.03219,1.0325 2.25779,1.8517 3.60661,2.4105 1.34882,0.5588 2.79452,0.8465 4.25457,0.8465 h 45.6831 c 1.46,0 2.9057,-0.2877 4.2545,-0.8465 1.3488,-0.5588 2.5743,-1.378 3.6065,-2.4105 1.0322,-1.0326 1.8509,-2.2584 2.4092,-3.6074 0.5583,-1.3491 0.8455,-2.7949 0.845,-4.2549 V 20.8856 Z"
       fill="#00c650"
       id="path1" />
  </g>
  <path
     d="m 67.913647,20.338531 h -10.223 c -2.2585,-0.0011 -4.4242,-0.8988 -6.0212,-2.4958 -1.597,-1.597 -2.4948,-3.7628 -2.4959,-6.0213 V 1.1581421e-8 Z"
     fill="#00c650"
     id="path2" />
  <path
     d="m 75.976247,70.466031 h -51.6476 c -3.6636,0 -6.6336,2.97 -6.6336,6.6336 v 15.3984 c 0,3.6636 2.97,6.6336 6.6336,6.6336 h 51.6476 c 3.6636,0 6.6335,-2.97 6.6335,-6.6336 v -15.3984 c 0,-3.6636 -2.9699,-6.6336 -6.6335,-6.6336 z"
     fill="#00c650"
     id="path3" />
  <path
     d="m 43.081047,60.474331 h -18.2443 c -1.7861,-0.0022 -3.4984,-0.7126 -4.7613,-1.9756 -1.2629,-1.2629 -1.9734,-2.9752 -1.9756,-4.7612 v -18.2443 c 0.0022,-1.7861 0.7127,-3.4984 1.9756,-4.7613 1.2629,-1.2629 2.9752,-1.9734 4.7613,-1.9756 h 18.2443 c 1.7856,0.0022 3.4974,0.7128 4.7597,1.9759 1.2623,1.263 1.9719,2.9753 1.973,4.761 v 18.2443 c -0.0011,1.7856 -0.7107,3.4979 -1.973,4.761 -1.2623,1.263 -2.9741,1.9736 -4.7597,1.9758 z m -18.2443,-28.7399 c -0.9966,0.0011 -1.9521,0.3975 -2.6567,1.1021 -0.7047,0.7047 -1.101,1.6601 -1.1021,2.6567 v 18.2443 c 0.0011,0.9965 0.3974,1.9519 1.1021,2.6566 0.7046,0.7047 1.6601,1.101 2.6567,1.1021 h 18.2443 c 0.9961,-0.0011 1.9511,-0.3976 2.6551,-1.1023 0.704,-0.7048 1.0995,-1.6603 1.0995,-2.6564 v -18.2443 c 0,-0.9962 -0.3955,-1.9516 -1.0995,-2.6564 -0.704,-0.7048 -1.659,-1.1013 -2.6551,-1.1024 z"
     fill="#00c650"
     id="path8" />
  <path
     d="m 48.326747,50.268031 v 3.4696 c -0.0011,1.3909 -0.5541,2.7245 -1.5376,3.7081 -0.9835,0.9835 -2.3172,1.5365 -3.7081,1.5376 h -18.2443 c -1.3912,0 -2.7255,-0.5527 -3.7093,-1.5364 -0.9837,-0.9838 -1.5364,-2.3181 -1.5364,-3.7093 v -5.824 c 2.9203,-0.6278 7.3688,-0.8261 12.7673,1.33 l 3.3457,-3.1887 2.28,5.7827 c 0,0 0.6113,-2.1272 2.5857,-1.8257 1.9743,0.3015 5.1714,1.3713 6.5386,0.4585 0.3683,-0.2125 0.8012,-0.2844 1.2184,-0.2024 z"
     fill="#00c650"
     id="path9" />
  <path
     d="m 41.936947,39.218731 c 1.1201,0 2.0282,-0.908 2.0282,-2.0281 0,-1.12 -0.9081,-2.028 -2.0282,-2.028 -1.1201,0 -2.028,0.908 -2.028,2.028 0,1.1201 0.9079,2.0281 2.028,2.0281 z"
     fill="#00c650"
     id="path10" />
  <path
     style="font-weight:bold;font-size:18.6667px;font-family:Montserrat;-inkscape-font-specification:'Montserrat Bold';letter-spacing:0px;fill:#ffffff;stroke-width:1.5"
     d="m 31.047297,91.182422 q -0.746668,0 -1.288002,-0.504001 -0.522668,-0.522667 -0.522668,-1.325336 0,-0.802668 0.522668,-1.288002 0.541334,-0.504001 1.288002,-0.504001 0.765335,0 1.288002,0.504001 0.522668,0.485334 0.522668,1.288002 0,0.802669 -0.522668,1.325336 -0.522667,0.504001 -1.288002,0.504001 z m 8.474634,0.07467 q -1.568002,0 -3.005338,-0.410668 -1.437336,-0.429334 -2.314671,-1.101335 l 1.026668,-2.277337 q 0.840002,0.597334 1.978671,0.989335 1.157335,0.373334 2.333337,0.373334 0.896002,0 1.437336,-0.168001 0.560001,-0.186667 0.821335,-0.504 0.261334,-0.317334 0.261334,-0.728002 0,-0.522667 -0.410668,-0.821335 -0.410667,-0.317333 -1.082668,-0.504 -0.672002,-0.205334 -1.493336,-0.373334 -0.802669,-0.186667 -1.624003,-0.448001 -0.802668,-0.261334 -1.47467,-0.672001 -0.672001,-0.410668 -1.101335,-1.082669 -0.410667,-0.672001 -0.410667,-1.717337 0,-1.120002 0.597334,-2.03467 0.616001,-0.933335 1.829337,-1.474669 1.232002,-0.560001 3.080005,-0.560001 1.232002,0 2.426671,0.298667 1.194669,0.28 2.109337,0.858668 l -0.933335,2.296004 q -0.914668,-0.522667 -1.829336,-0.765334 -0.914669,-0.261334 -1.792003,-0.261334 -0.877335,0 -1.437336,0.205334 -0.560001,0.205333 -0.802669,0.541334 -0.242667,0.317334 -0.242667,0.746668 0,0.504001 0.410668,0.821335 0.410667,0.298667 1.082668,0.485334 0.672002,0.186667 1.47467,0.373334 0.821335,0.186667 1.624003,0.429334 0.821334,0.242667 1.493336,0.653335 0.672001,0.410667 1.082668,1.082668 0.429334,0.672001 0.429334,1.69867 0,1.101335 -0.616001,2.016003 -0.616001,0.914669 -1.848003,1.47467 -1.213336,0.560001 -3.080006,0.560001 z m 11.535995,-0.224001 -5.637343,-13.06669 h 3.266672 l 4.928009,11.573354 h -1.92267 L 56.69527,77.966401 h 3.005339 l -5.656011,13.06669 z m 15.881794,0.224001 q -1.549336,0 -2.856005,-0.485334 -1.288002,-0.504001 -2.25867,-1.41867 -0.952002,-0.914668 -1.493337,-2.14667 -0.522667,-1.232002 -0.522667,-2.706672 0,-1.474669 0.522667,-2.706671 0.541335,-1.232002 1.512003,-2.146671 0.970669,-0.914668 2.277338,-1.400002 1.306669,-0.504001 2.874672,-0.504001 1.736003,0 3.117338,0.578667 1.400003,0.578668 2.352005,1.680004 l -1.941337,1.792003 q -0.709335,-0.746668 -1.549336,-1.101336 -0.840002,-0.373334 -1.829337,-0.373334 -0.952002,0 -1.736003,0.298668 -0.784001,0.298667 -1.362669,0.858668 -0.560001,0.560001 -0.877335,1.325336 -0.298667,0.765334 -0.298667,1.698669 0,0.914669 0.298667,1.680003 0.317334,0.765335 0.877335,1.344003 0.578668,0.560001 1.344002,0.858668 0.784002,0.298667 1.717337,0.298667 0.896001,0 1.736003,-0.28 0.858668,-0.298668 1.661336,-0.989335 l 1.717337,2.184004 q -1.064002,0.802668 -2.482672,1.232002 -1.400002,0.429334 -2.800005,0.429334 z m 2.520005,-2.053337 v -4.909342 h 2.762672 v 5.301343 z"
     id="text12"
     aria-label=".SVG" />
</svg>
