<?xml version="1.0" encoding="UTF-8" standalone="no"?>
<svg
   width="83"
   height="100"
   viewBox="0 0 83 100"
   fill="none"
   version="1.1"
   id="svg12"
   xmlns="http://www.w3.org/2000/svg"
   xmlnsSvg="http://www.w3.org/2000/svg">
  <defs
     id="defs12" />
  <g
     opacity="0.3"
     id="g1">
    <path
       opacity="0.3"
       d="m 57.6905,20.6141 c -2.2582,-0.0022 -4.4233,-0.9002 -6.0201,-2.497 -1.5967,-1.5968 -2.4948,-3.7619 -2.497,-6.0201 V 0.271485 H 11.1193 C 9.65928,0.270943 8.21344,0.557994 6.86441,1.11634 5.51538,1.67468 4.28957,2.49336 3.25699,3.52555 2.22442,4.55774 1.40531,5.78324 0.846467,7.13206 0.287621,8.48088 -1.00809e-7,9.92658 0,11.3866 v 67.0047 c -1.00809e-7,1.46 0.287621,2.9058 0.846467,4.2546 0.558843,1.3488 1.377953,2.5743 2.410523,3.6065 1.03258,1.0322 2.25839,1.8508 3.60742,2.4091 1.34903,0.5584 2.79487,0.8455 4.25489,0.845 h 45.6831 c 2.948,0 5.7751,-1.1711 7.8596,-3.2556 2.0845,-2.0845 3.2555,-4.9117 3.2555,-7.8596 V 20.6141 Z"
       fill="#0072ff"
       id="path1" />
  </g>
  <path
     d="M 67.9175,20.6141 H 57.6904 c -2.2581,-0.0022 -4.4232,-0.9002 -6.02,-2.497 -1.5968,-1.5968 -2.4949,-3.7619 -2.4971,-6.0201 V 0.271484 Z"
     fill="#0072ff"
     id="path2" />
  <path
     d="M 53.9443,34.8559 H 11.3012 c -0.4098,0 -0.8027,-0.1627 -1.0924,-0.4524 C 9.91912,34.1138 9.75635,33.7208 9.75635,33.3111 9.75581,33.1079 9.79538,32.9066 9.87278,32.7187 9.95017,32.5308 10.0639,32.36 10.2074,32.2161 c 0.1435,-0.1439 0.3139,-0.258 0.5016,-0.3359 0.1877,-0.0779 0.3889,-0.118 0.5922,-0.118 h 42.6431 c 0.4108,0 0.8047,0.1632 1.0952,0.4537 0.2905,0.2905 0.4537,0.6844 0.4537,1.0952 -0.0011,0.4101 -0.1648,0.8031 -0.4551,1.0927 -0.2904,0.2895 -0.6837,0.4521 -1.0938,0.4521 z"
     fill="#0072ff"
     id="path3" />
  <path
     d="M 53.9443,44.0959 H 11.3012 c -0.4098,0 -0.8027,-0.1627 -1.0924,-0.4525 C 9.91912,43.3537 9.75635,42.9608 9.75635,42.5511 9.75581,42.3479 9.79538,42.1466 9.87278,41.9587 9.95017,41.7708 10.0639,41.6 10.2074,41.4561 c 0.1435,-0.1439 0.3139,-0.258 0.5016,-0.3359 0.1877,-0.0779 0.3889,-0.118 0.5922,-0.118 h 42.6431 c 0.4108,0 0.8047,0.1631 1.0952,0.4536 0.2905,0.2905 0.4537,0.6845 0.4537,1.0953 -0.0011,0.4101 -0.1648,0.803 -0.4551,1.0926 -0.2904,0.2895 -0.6837,0.4522 -1.0938,0.4522 z"
     fill="#0072ff"
     id="path4" />
  <path
     d="M 53.9443,53.3359 H 11.3012 c -0.2033,0 -0.4045,-0.0401 -0.5922,-0.118 C 10.5213,53.14 10.3509,53.0259 10.2074,52.882 10.0639,52.7381 9.95017,52.5673 9.87278,52.3794 9.79538,52.1915 9.75581,51.9902 9.75635,51.787 c 0,-0.4097 0.16277,-0.8026 0.45245,-1.0923 0.2897,-0.2897 0.6826,-0.4525 1.0924,-0.4525 h 42.6431 c 0.4101,0 0.8034,0.1626 1.0938,0.4522 0.2903,0.2896 0.454,0.6825 0.4551,1.0926 0,0.4108 -0.1632,0.8047 -0.4537,1.0952 -0.2905,0.2905 -0.6844,0.4537 -1.0952,0.4537 z"
     fill="#0072ff"
     id="path5" />
  <path
     d="m 53.325598,62.5759 h -41.10919 c -0.32374,0 -0.644135,-0.0401 -0.943033,-0.118 C 10.974477,62.38 10.703129,62.2658 10.474616,62.1219 10.246103,61.978 10.064996,61.8073 9.941759,61.6194 9.8185055,61.4315 9.7554932,61.2302 9.7563532,61.027 c 0,-0.4097 0.2591988,-0.8027 0.7204908,-1.0924 0.461325,-0.2898 1.086988,-0.4524 1.739564,-0.4524 h 41.10919 c 0.652416,0 1.278078,0.1626 1.739403,0.4524 0.461325,0.2897 0.72057,0.6827 0.72057,1.0924 7.98e-4,0.2032 -0.06226,0.4045 -0.185356,0.5924 -0.123255,0.1879 -0.304313,0.3586 -0.532825,0.5025 -0.228513,0.1439 -0.500021,0.2581 -0.798918,0.336 -0.298899,0.0779 -0.619294,0.118 -0.942874,0.118 z"
     fill="#0072ff"
     id="path6"
     style="stroke-width:1.26191" />
  <path
     d="M 75.9804,70.7417 H 24.3328 c -3.6636,0 -6.6336,2.9699 -6.6336,6.6336 v 15.3984 c 0,3.6636 2.97,6.6336 6.6336,6.6336 h 51.6476 c 3.6636,0 6.6335,-2.97 6.6335,-6.6336 V 77.3753 c 0,-3.6637 -2.9699,-6.6336 -6.6335,-6.6336 z"
     fill="#0072ff"
     id="path7" />
  <path
     d="m 32.898016,91.810703 q -0.746668,0 -1.288002,-0.504001 -0.522668,-0.522668 -0.522668,-1.325336 0,-0.802668 0.522668,-1.288002 0.541334,-0.504001 1.288002,-0.504001 0.765335,0 1.288003,0.504001 0.522667,0.485334 0.522667,1.288002 0,0.802668 -0.522667,1.325336 -0.522668,0.504001 -1.288003,0.504001 z m 6.081786,-0.149334 V 81.058684 h -4.181341 v -2.464005 h 11.386687 v 2.464005 h -4.18134 v 10.602685 z m 6.776,0 5.618677,-7.74668 v 2.20267 l -5.376009,-7.52268 h 3.434672 l 3.714674,5.245343 -1.437336,0.01867 3.658673,-5.26401 h 3.285339 l -5.338676,7.392013 v -2.165337 l 5.65601,7.840014 h -3.490673 l -3.84534,-5.54401 h 1.381336 l -3.78934,5.54401 z m 16.968031,0 V 81.058684 h -4.181341 v -2.464005 h 11.386687 v 2.464005 h -4.181341 v 10.602685 z"
     id="text4"
     style="font-weight:bold;font-size:18.6667px;font-family:Montserrat;-inkscape-font-specification:'Montserrat Bold';letter-spacing:0px;fill:#ffffff;stroke-width:1.5"
     aria-label=".TXT" />
</svg>
