<?xml version="1.0" encoding="UTF-8" standalone="no"?>
<svg
   width="82.609749"
   height="99.13163"
   viewBox="0 0 82.609749 99.13163"
   fill="none"
   version="1.1"
   xmlnsSvg="http://www.w3.org/2000/svg"
   xmlns="http://www.w3.org/2000/svg">
  <g
     opacity="0.3"
     id="g1"
     transform="translate(-0.00195312,-0.54296899)"
     style="fill:#d35f5f">
    <path
       opacity="0.3"
       d="m 57.6925,20.8815 c -2.2585,-0.0011 -4.4242,-0.8988 -6.0213,-2.4958 -1.597,-1.597 -2.4947,-3.7628 -2.4958,-6.0213 V 0.542969 H 11.1172 C 9.65715,0.542969 8.21145,0.83059 6.86263,1.38944 5.51381,1.94828 4.28821,2.76739 3.25602,3.79996 2.22383,4.83253 1.40525,6.05835 0.846908,7.40738 0.288563,8.75641 0.00141134,10.2022 0.00195389,11.6623 v 67.0005 c -5.4255e-4,1.46 0.28660911,2.9058 0.84495411,4.2549 0.558342,1.349 1.376922,2.5748 2.409112,3.6074 1.03219,1.0325 2.25779,1.8517 3.60661,2.4105 1.34882,0.5588 2.79452,0.8465 4.25457,0.8465 h 45.6831 c 1.46,0 2.9057,-0.2877 4.2545,-0.8465 1.3488,-0.5588 2.5743,-1.378 3.6065,-2.4105 1.0322,-1.0326 1.8509,-2.2584 2.4092,-3.6074 0.5583,-1.3491 0.8455,-2.7949 0.845,-4.2549 V 20.8856 Z"
       fill="#00c650"
       id="path1"
       style="fill:#d35f5f" />
  </g>
  <path
     d="m 67.913647,20.338531 h -10.223 c -2.2585,-0.0011 -4.4242,-0.8988 -6.0212,-2.4958 -1.597,-1.597 -2.4948,-3.7628 -2.4959,-6.0213 V 1.1581421e-8 Z"
     fill="#00c650"
     id="path2"
     style="fill:#c83737" />
  <path
     d="m 75.976247,70.466031 h -51.6476 c -3.6636,0 -6.6336,2.97 -6.6336,6.6336 v 15.3984 c 0,3.6636 2.97,6.6336 6.6336,6.6336 h 51.6476 c 3.6636,0 6.6335,-2.97 6.6335,-6.6336 v -15.3984 c 0,-3.6636 -2.9699,-6.6336 -6.6335,-6.6336 z"
     fill="#00c650"
     id="path3"
     style="fill:#c83737" />
  <path
     d="m 47.081047,60.474331 h -26.2443 c -1.7861,-0.0022 -3.4984,-0.7126 -4.7613,-1.9756 -1.2629,-1.2629 -1.9734,-2.9752 -1.9756,-4.7612 v -18.2443 c 0.0022,-1.7861 0.7127,-3.4984 1.9756,-4.7613 1.2629,-1.2629 2.9752,-1.9734 4.7613,-1.9756 h 26.2443 c 1.7856,0.0022 3.4974,0.7128 4.7597,1.9759 1.2623,1.263 1.9719,2.9753 1.973,4.761 v 18.2443 c -0.0011,1.7856 -0.7107,3.4979 -1.973,4.761 -1.2623,1.263 -2.9741,1.9736 -4.7597,1.9758 z m -26.2443,-28.7399 c -0.9966,0.0011 -1.9521,0.3975 -2.6567,1.1021 -0.7047,0.7047 -1.101,1.6601 -1.1021,2.6567 v 18.2443 c 0.0011,0.9965 0.3974,1.9519 1.1021,2.6566 0.7046,0.7047 1.6601,1.101 2.6567,1.1021 h 26.2443 c 0.9961,-0.0011 1.9511,-0.3976 2.6551,-1.1023 0.704,-0.7048 1.0995,-1.6603 1.0995,-2.6564 v -18.2443 c 0,-0.9962 -0.3955,-1.9516 -1.0995,-2.6564 -0.704,-0.7048 -1.659,-1.1013 -2.6551,-1.1024 z"
     fill="#00c650"
     id="path8"
     style="fill:#c83737" />
  <path
     style="fill:#c83737;stroke-width:1.5"
     id="path4"
     d="m 44.387033,44.24231 -16.447127,9.413805 0.07097,-18.950532 z"
     transform="matrix(0.75118913,0,0,0.89923879,7.5299155,4.7476684)" />
  <path
     d="m 30.189832,89.702919 -4.429344,-10.26669 h 2.566673 l 3.872009,9.093354 h -1.510671 l 3.930676,-9.093354 h 2.361339 l -4.44401,10.26669 z m 7.641308,0 v -10.26669 h 2.376005 v 10.26669 z m 4.810665,0 v -10.26669 h 4.664011 q 1.672004,0 2.948007,0.645335 1.276003,0.630668 1.994671,1.77467 0.718668,1.144003 0.718668,2.71334 0,1.55467 -0.718668,2.713339 -0.718668,1.144003 -1.994671,1.789338 -1.276003,0.630668 -2.948007,0.630668 z m 2.376006,-1.950671 h 2.170671 q 1.026669,0 1.774671,-0.381334 0.762668,-0.396001 1.173336,-1.11467 0.425334,-0.718668 0.425334,-1.68667 0,-0.982669 -0.425334,-1.686671 Q 49.725821,82.164235 48.963153,81.782901 48.215151,81.3869 47.188482,81.3869 h -2.170671 z m 11.924002,-4.18001 h 4.942678 v 1.848005 h -4.942678 z m 0.176001,4.22401 h 5.588013 v 1.906671 h -7.949352 v -10.26669 h 7.758684 V 81.3429 h -5.397345 z m 12.466661,2.082671 q -1.217336,0 -2.258672,-0.396 -1.026669,-0.396001 -1.789337,-1.11467 -0.748002,-0.718668 -1.173336,-1.68667 -0.410668,-0.968002 -0.410668,-2.112005 0,-1.144003 0.410668,-2.112005 0.425334,-0.968002 1.188002,-1.686671 0.762669,-0.718668 1.789338,-1.114669 1.026669,-0.396001 2.229338,-0.396001 1.217336,0 2.229339,0.396001 1.026669,0.396001 1.77467,1.114669 0.762669,0.718669 1.188003,1.686671 0.425335,0.953336 0.425335,2.112005 0,1.144003 -0.425335,2.126671 -0.425334,0.968003 -1.188003,1.686671 -0.748001,0.704002 -1.77467,1.100003 -1.012003,0.396 -2.214672,0.396 z m -0.01467,-2.024004 q 0.689335,0 1.261337,-0.234667 0.586668,-0.234668 1.026669,-0.674669 0.440001,-0.440001 0.674668,-1.041335 0.249334,-0.601335 0.249334,-1.33467 0,-0.733335 -0.249334,-1.33467 -0.234667,-0.601335 -0.674668,-1.041336 -0.425335,-0.440001 -1.012003,-0.674668 -0.586668,-0.234667 -1.276003,-0.234667 -0.689335,0 -1.276003,0.234667 -0.572001,0.234667 -1.012002,0.674668 -0.440001,0.440001 -0.689335,1.041336 -0.234667,0.601335 -0.234667,1.33467 0,0.718668 0.234667,1.33467 0.249334,0.601334 0.674668,1.041335 0.440001,0.440001 1.026669,0.674669 0.586668,0.234667 1.276003,0.234667 z"
     id="text4"
     style="font-weight:bold;font-size:14.6667px;font-family:Montserrat;-inkscape-font-specification:'Montserrat Bold';letter-spacing:0px;fill:#f9f9f9;stroke-width:1.5"
     aria-label="VIDEO" />
</svg>
