<?xml version="1.0" encoding="UTF-8" standalone="no"?>
<svg
   width="83"
   height="100"
   viewBox="0 0 83 100"
   fill="none"
   version="1.1"
   id="svg12"
   xmlns="http://www.w3.org/2000/svg"
   xmlnsSvg="http://www.w3.org/2000/svg">
  <defs
     id="defs12" />
  <g
     opacity="0.3"
     id="g1">
    <path
       opacity="0.3"
       d="m 57.6905,20.6141 c -2.2582,-0.0022 -4.4233,-0.9002 -6.0201,-2.497 -1.5967,-1.5968 -2.4948,-3.7619 -2.497,-6.0201 V 0.271485 H 11.1193 C 9.65928,0.270943 8.21344,0.557994 6.86441,1.11634 5.51538,1.67468 4.28957,2.49336 3.25699,3.52555 2.22442,4.55774 1.40531,5.78324 0.846467,7.13206 0.287621,8.48088 -1.00809e-7,9.92658 0,11.3866 v 67.0047 c -1.00809e-7,1.46 0.287621,2.9058 0.846467,4.2546 0.558843,1.3488 1.377953,2.5743 2.410523,3.6065 1.03258,1.0322 2.25839,1.8508 3.60742,2.4091 1.34903,0.5584 2.79487,0.8455 4.25489,0.845 h 45.6831 c 2.948,0 5.7751,-1.1711 7.8596,-3.2556 2.0845,-2.0845 3.2555,-4.9117 3.2555,-7.8596 V 20.6141 Z"
       fill="#0072ff"
       id="path1" />
  </g>
  <path
     d="m 24.949362,60.353671 -0.04892,-26.436379 c -3.85e-4,-0.208188 0.03933,-0.414259 0.116878,-0.606532 0.07754,-0.192272 0.191421,-0.366858 0.335048,-0.513918 0.143628,-0.14706 0.314112,-0.263655 0.501865,-0.343048 0.187753,-0.0794 0.388978,-0.120078 0.592179,-0.11968 0.4097,-3.09e-4 0.803008,0.166078 1.093257,0.462505 0.290349,0.296448 0.453693,0.698674 0.45447,1.11833 l 0.04892,26.436377 c 7.76e-4,0.419552 -0.161079,0.822021 -0.45033,1.118914 -0.28915,0.296886 -0.681842,0.4639 -1.091541,0.464211 -0.203199,6.38e-4 -0.404574,-0.03974 -0.59262,-0.118751 -0.188047,-0.07911 -0.358962,-0.19543 -0.503134,-0.342268 -0.144171,-0.146845 -0.258694,-0.321359 -0.33695,-0.513513 -0.07825,-0.192152 -0.118737,-0.398163 -0.119122,-0.606248 z"
     fill="#0072ff"
     id="path6-1-6"
     style="stroke-width:1.01194" />
  <path
     d="m 39.692895,60.488018 -0.04892,-26.436379 c -3.85e-4,-0.208188 0.03933,-0.414259 0.116878,-0.606532 0.07754,-0.192272 0.191421,-0.366858 0.335048,-0.513918 0.143628,-0.14706 0.314112,-0.263655 0.501865,-0.343048 0.187753,-0.0794 0.388978,-0.120078 0.592179,-0.11968 0.4097,-3.09e-4 0.803008,0.166078 1.093257,0.462505 0.290349,0.296448 0.453693,0.698674 0.45447,1.11833 l 0.04892,26.436377 c 7.76e-4,0.419552 -0.161079,0.822021 -0.45033,1.118914 -0.28915,0.296886 -0.681842,0.4639 -1.091541,0.464211 -0.203199,6.38e-4 -0.404574,-0.03974 -0.59262,-0.118751 -0.188047,-0.07911 -0.358962,-0.19543 -0.503134,-0.342268 -0.144171,-0.146845 -0.258694,-0.321359 -0.33695,-0.513513 -0.07825,-0.192152 -0.118737,-0.398163 -0.119122,-0.606248 z"
     fill="#0072ff"
     id="path6-1-6-6"
     style="stroke-width:1.01194" />
  <path
     d="M 67.9175,20.6141 H 57.6904 c -2.2581,-0.0022 -4.4232,-0.9002 -6.02,-2.497 -1.5968,-1.5968 -2.4949,-3.7619 -2.4971,-6.0201 V 0.271484 Z"
     fill="#0072ff"
     id="path2" />
  <path
     d="M 53.9443,34.8559 H 11.3012 c -0.4098,0 -0.8027,-0.1627 -1.0924,-0.4524 C 9.91912,34.1138 9.75635,33.7208 9.75635,33.3111 9.75581,33.1079 9.79538,32.9066 9.87278,32.7187 9.95017,32.5308 10.0639,32.36 10.2074,32.2161 c 0.1435,-0.1439 0.3139,-0.258 0.5016,-0.3359 0.1877,-0.0779 0.3889,-0.118 0.5922,-0.118 h 42.6431 c 0.4108,0 0.8047,0.1632 1.0952,0.4537 0.2905,0.2905 0.4537,0.6844 0.4537,1.0952 -0.0011,0.4101 -0.1648,0.8031 -0.4551,1.0927 -0.2904,0.2895 -0.6837,0.4521 -1.0938,0.4521 z"
     fill="#0072ff"
     id="path3" />
  <path
     d="M 53.9443,44.0959 H 11.3012 c -0.4098,0 -0.8027,-0.1627 -1.0924,-0.4525 C 9.91912,43.3537 9.75635,42.9608 9.75635,42.5511 9.75581,42.3479 9.79538,42.1466 9.87278,41.9587 9.95017,41.7708 10.0639,41.6 10.2074,41.4561 c 0.1435,-0.1439 0.3139,-0.258 0.5016,-0.3359 0.1877,-0.0779 0.3889,-0.118 0.5922,-0.118 h 42.6431 c 0.4108,0 0.8047,0.1631 1.0952,0.4536 0.2905,0.2905 0.4537,0.6845 0.4537,1.0953 -0.0011,0.4101 -0.1648,0.803 -0.4551,1.0926 -0.2904,0.2895 -0.6837,0.4522 -1.0938,0.4522 z"
     fill="#0072ff"
     id="path4" />
  <path
     d="M 53.9443,53.3359 H 11.3012 c -0.2033,0 -0.4045,-0.0401 -0.5922,-0.118 C 10.5213,53.14 10.3509,53.0259 10.2074,52.882 10.0639,52.7381 9.95017,52.5673 9.87278,52.3794 9.79538,52.1915 9.75581,51.9902 9.75635,51.787 c 0,-0.4097 0.16277,-0.8026 0.45245,-1.0923 0.2897,-0.2897 0.6826,-0.4525 1.0924,-0.4525 h 42.6431 c 0.4101,0 0.8034,0.1626 1.0938,0.4522 0.2903,0.2896 0.454,0.6825 0.4551,1.0926 0,0.4108 -0.1632,0.8047 -0.4537,1.0952 -0.2905,0.2905 -0.6844,0.4537 -1.0952,0.4537 z"
     fill="#0072ff"
     id="path5" />
  <path
     d="m 53.325598,62.5759 h -41.10919 c -0.32374,0 -0.644135,-0.0401 -0.943033,-0.118 C 10.974477,62.38 10.703129,62.2658 10.474616,62.1219 10.246103,61.978 10.064996,61.8073 9.941759,61.6194 9.8185055,61.4315 9.7554932,61.2302 9.7563532,61.027 c 0,-0.4097 0.2591988,-0.8027 0.7204908,-1.0924 0.461325,-0.2898 1.086988,-0.4524 1.739564,-0.4524 h 41.10919 c 0.652416,0 1.278078,0.1626 1.739403,0.4524 0.461325,0.2897 0.72057,0.6827 0.72057,1.0924 7.98e-4,0.2032 -0.06226,0.4045 -0.185356,0.5924 -0.123255,0.1879 -0.304313,0.3586 -0.532825,0.5025 -0.228513,0.1439 -0.500021,0.2581 -0.798918,0.336 -0.298899,0.0779 -0.619294,0.118 -0.942874,0.118 z"
     fill="#0072ff"
     id="path6"
     style="stroke-width:1.26191" />
  <path
     d="m 9.6225567,60.887974 -0.04892,-27.480905 c -3.85e-4,-0.216414 0.03933,-0.430627 0.1168783,-0.630497 0.07754,-0.199869 0.191421,-0.381353 0.335048,-0.534223 0.143628,-0.152871 0.314112,-0.274072 0.501865,-0.356602 0.187753,-0.08254 0.388978,-0.124823 0.592179,-0.124409 0.4097,-3.21e-4 0.803008,0.17264 1.093257,0.480779 0.290349,0.308161 0.453693,0.726279 0.45447,1.162516 l 0.04892,27.480904 c 7.76e-4,0.436128 -0.161079,0.854499 -0.45033,1.163123 -0.28915,0.308616 -0.681842,0.482229 -1.091541,0.482552 -0.203199,6.64e-4 -0.404574,-0.04131 -0.59262,-0.123443 -0.188047,-0.08224 -0.358962,-0.203151 -0.503134,-0.355791 C 9.934458,61.899331 9.819935,61.717922 9.741679,61.518176 9.663429,61.318431 9.6229417,61.104281 9.6225567,60.887974 Z"
     fill="#0072ff"
     id="path6-1"
     style="stroke-width:1.03174" />
  <path
     d="m 52.745427,60.758684 -0.04892,-27.247595 c -3.85e-4,-0.214577 0.03933,-0.426971 0.116878,-0.625144 0.07754,-0.198172 0.191421,-0.378116 0.335048,-0.529688 0.143628,-0.151573 0.314112,-0.271745 0.501865,-0.353574 0.187753,-0.08184 0.388978,-0.123764 0.592179,-0.123353 0.4097,-3.18e-4 0.803008,0.171174 1.093257,0.476697 0.290349,0.305545 0.453693,0.720113 0.45447,1.152646 l 0.04892,27.247595 c 7.76e-4,0.432425 -0.161079,0.847244 -0.45033,1.153248 -0.28915,0.305996 -0.681842,0.478135 -1.091541,0.478455 -0.203199,6.58e-4 -0.404574,-0.04096 -0.59262,-0.122395 -0.188047,-0.08154 -0.358962,-0.201426 -0.503134,-0.35277 -0.144171,-0.151351 -0.258694,-0.33122 -0.33695,-0.52927 -0.07825,-0.19805 -0.118737,-0.410381 -0.119122,-0.624852 z"
     fill="#0072ff"
     id="path6-1-7"
     style="stroke-width:1.02735" />
  <path
     d="M 75.9804,70.7417 H 24.3328 c -3.6636,0 -6.6336,2.9699 -6.6336,6.6336 v 15.3984 c 0,3.6636 2.97,6.6336 6.6336,6.6336 h 51.6476 c 3.6636,0 6.6335,-2.97 6.6335,-6.6336 V 77.3753 c 0,-3.6637 -2.9699,-6.6336 -6.6335,-6.6336 z"
     fill="#0072ff"
     id="path7" />
  <path
     d="m 25.752285,91.193973 q -0.746668,0 -1.288002,-0.504001 -0.522667,-0.522667 -0.522667,-1.325335 0,-0.802669 0.522667,-1.288003 0.541334,-0.504001 1.288002,-0.504001 0.765335,0 1.288003,0.504001 0.522667,0.485334 0.522667,1.288003 0,0.802668 -0.522667,1.325335 -0.522668,0.504001 -1.288003,0.504001 z m 2.501322,-0.149333 5.618677,-7.746681 v 2.202671 l -5.37601,-7.522681 h 3.434673 l 3.714673,5.245343 -1.437335,0.01867 3.658673,-5.26401 h 3.285339 l -5.338676,7.392014 v -2.165338 l 5.65601,7.840015 h -3.490673 l -3.84534,-5.54401 h 1.381336 l -3.789341,5.54401 z m 14.414172,0 V 77.977949 h 3.024005 v 10.602686 h 6.552012 v 2.464005 z m 15.500418,0.224 q -1.568003,0 -3.005339,-0.410667 -1.437336,-0.429335 -2.314671,-1.101336 L 53.874856,87.4793 q 0.840001,0.597334 1.97867,0.989335 1.157335,0.373334 2.333337,0.373334 0.896002,0 1.437336,-0.168 0.560001,-0.186667 0.821335,-0.504001 0.261334,-0.317334 0.261334,-0.728002 0,-0.522667 -0.410667,-0.821334 -0.410668,-0.317334 -1.082669,-0.504001 -0.672001,-0.205334 -1.493336,-0.373334 -0.802668,-0.186667 -1.624003,-0.448001 -0.802668,-0.261334 -1.474669,-0.672001 -0.672002,-0.410668 -1.101336,-1.082669 -0.410667,-0.672001 -0.410667,-1.717336 0,-1.120002 0.597334,-2.034671 0.616002,-0.933335 1.829337,-1.474669 1.232002,-0.560001 3.080006,-0.560001 1.232002,0 2.426671,0.298667 1.194668,0.280001 2.109337,0.858668 l -0.933335,2.296004 q -0.914669,-0.522667 -1.829337,-0.765334 -0.914668,-0.261334 -1.792003,-0.261334 -0.877335,0 -1.437336,0.205334 -0.560001,0.205333 -0.802668,0.541334 -0.242667,0.317334 -0.242667,0.746668 0,0.504001 0.410667,0.821335 0.410668,0.298667 1.082669,0.485334 0.672001,0.186667 1.474669,0.373334 0.821335,0.186667 1.624003,0.429334 0.821335,0.242667 1.493336,0.653335 0.672001,0.410667 1.082669,1.082668 0.429334,0.672001 0.429334,1.69867 0,1.101335 -0.616001,2.016004 -0.616001,0.914668 -1.848004,1.474669 -1.213335,0.560001 -3.080005,0.560001 z m 5.902156,-0.224 5.618677,-7.746681 v 2.202671 l -5.37601,-7.522681 h 3.434673 l 3.714673,5.245343 -1.437336,0.01867 3.658674,-5.26401 h 3.285339 l -5.338676,7.392014 v -2.165338 l 5.65601,7.840015 h -3.490673 l -3.84534,-5.54401 h 1.381335 l -3.78934,5.54401 z"
     id="text12"
     style="font-weight:bold;font-size:18.6667px;font-family:Montserrat;-inkscape-font-specification:'Montserrat Bold';letter-spacing:0px;fill:#f9f9f9;stroke-width:1.5"
     aria-label=".XLSX" />
</svg>
