<svg width="24" height="25" viewBox="0 0 24 25" fill="none" xmlns="http://www.w3.org/2000/svg">
<path d="M17 3.80176H7C4 3.80176 2 5.30176 2 8.80176V15.8018C2 19.3018 4 20.8018 7 20.8018H17C20 20.8018 22 19.3018 22 15.8018V8.80176C22 5.30176 20 3.80176 17 3.80176ZM17.47 9.89176L14.34 12.3918C13.68 12.9218 12.84 13.1818 12 13.1818C11.16 13.1818 10.31 12.9218 9.66 12.3918L6.53 9.89176C6.21 9.63176 6.16 9.15176 6.41 8.83176C6.67 8.51176 7.14 8.45176 7.46 8.71176L10.59 11.2118C11.35 11.8218 12.64 11.8218 13.4 11.2118L16.53 8.71176C16.85 8.45176 17.33 8.50176 17.58 8.83176C17.84 9.15176 17.79 9.63176 17.47 9.89176Z" fill="#131A47"/>
</svg>
