<svg width="21" height="21" viewBox="0 0 21 21" fill="none" xmlns="http://www.w3.org/2000/svg">
<path d="M4.90646 12.5967L4.22418 15.1437L1.73047 15.1964C0.98522 13.8142 0.5625 12.2327 0.5625 10.552C0.5625 8.9269 0.957733 7.39436 1.65831 6.04492H1.65885L3.87895 6.45195L4.85149 8.65873C4.64794 9.25215 4.53699 9.88918 4.53699 10.552C4.53707 11.2715 4.66739 11.9607 4.90646 12.5967Z" fill="#FBBB00"/>
<path d="M19.9899 8.72168C20.1025 9.31453 20.1611 9.92679 20.1611 10.5525C20.1611 11.2542 20.0874 11.9386 19.9468 12.5988C19.4698 14.8453 18.2231 16.807 16.4962 18.1952L16.4957 18.1947L13.6994 18.052L13.3036 15.5814C14.4495 14.9094 15.345 13.8578 15.8167 12.5988H10.5762V8.72168H15.8932H19.9899Z" fill="#3763DB"/>
<path d="M16.4975 18.1942L16.498 18.1948C14.8185 19.5447 12.685 20.3525 10.3626 20.3525C6.63032 20.3525 3.38542 18.2664 1.7301 15.1965L4.90609 12.5967C5.73373 14.8055 7.86452 16.3779 10.3626 16.3779C11.4363 16.3779 12.4422 16.0877 13.3054 15.5809L16.4975 18.1942Z" fill="#28B446"/>
<path d="M16.6165 3.00819L13.4415 5.60745C12.5482 5.04906 11.4922 4.72648 10.3609 4.72648C7.80629 4.72648 5.63565 6.371 4.84947 8.65906L1.65679 6.04525H1.65625C3.28733 2.90051 6.57316 0.751953 10.3609 0.751953C12.7388 0.751953 14.9191 1.599 16.6165 3.00819Z" fill="#F14336"/>
</svg>
