<svg width="350" height="255" viewBox="0 0 350 255" fill="none" xmlns="http://www.w3.org/2000/svg">
<g filter="url(#filter0_dd_805_63905)">
<rect x="41" y="21" width="268" height="173" rx="8" fill="#5A31F4"/>
<rect x="40.5" y="20.5" width="269" height="174" rx="8.5" stroke="#D6DCE5"/>
<path d="M188.218 94.7565C188.218 104.376 181.491 111.24 172.088 111.24H163.232C163.134 111.24 163.038 111.259 162.947 111.297C162.857 111.334 162.775 111.39 162.706 111.459C162.567 111.599 162.488 111.788 162.488 111.986V124.628C162.487 124.825 162.409 125.015 162.269 125.155C162.13 125.294 161.941 125.373 161.744 125.373H155.544C155.347 125.373 155.158 125.295 155.018 125.155C154.879 125.015 154.801 124.825 154.801 124.628V79.0192C154.801 78.8216 154.879 78.6321 155.018 78.4923C155.158 78.3525 155.347 78.2738 155.544 78.2736H172.129C181.491 78.2633 188.218 85.128 188.218 94.7565ZM180.489 94.7565C180.489 89.2279 176.727 85.1897 171.623 85.1897H163.232C163.134 85.1894 163.037 85.2085 162.947 85.2459C162.857 85.2833 162.775 85.3382 162.705 85.4075C162.636 85.4768 162.581 85.5591 162.544 85.6496C162.507 85.7402 162.488 85.8373 162.488 85.9353V103.537C162.488 103.635 162.507 103.732 162.544 103.822C162.581 103.913 162.636 103.995 162.705 104.064C162.775 104.134 162.857 104.189 162.947 104.226C163.037 104.263 163.134 104.283 163.232 104.282H171.623C176.727 104.314 180.489 100.276 180.489 94.7565ZM190.057 116.625C189.993 115.15 190.298 113.682 190.944 112.355C191.59 111.028 192.557 109.883 193.756 109.025C196.175 107.203 199.956 106.26 205.505 106.063L211.416 105.857V104.107C211.416 100.607 209.07 99.1265 205.309 99.1265C201.548 99.1265 199.161 100.463 198.613 102.647C198.568 102.8 198.474 102.934 198.345 103.028C198.216 103.121 198.059 103.169 197.9 103.165H192.062C191.954 103.167 191.847 103.146 191.749 103.103C191.65 103.059 191.562 102.995 191.491 102.914C191.42 102.833 191.368 102.737 191.338 102.634C191.308 102.53 191.301 102.421 191.318 102.315C192.186 97.1382 196.485 93.2045 205.578 93.2045C215.25 93.2045 218.742 97.7175 218.742 106.332V124.628C218.74 124.827 218.659 125.017 218.518 125.156C218.377 125.296 218.186 125.374 217.988 125.373H212.098C212 125.374 211.904 125.355 211.813 125.317C211.723 125.28 211.641 125.225 211.572 125.156C211.503 125.086 211.448 125.004 211.411 124.914C211.373 124.823 211.354 124.726 211.354 124.628V123.262C211.356 123.149 211.324 123.039 211.262 122.945C211.201 122.851 211.112 122.778 211.008 122.735C210.904 122.692 210.789 122.682 210.68 122.706C210.57 122.73 210.47 122.787 210.393 122.868C208.626 124.793 205.774 126.182 201.207 126.182C194.49 126.182 190.057 122.682 190.057 116.625ZM211.416 112.659V111.24L203.759 111.644C199.729 111.851 197.383 113.529 197.383 116.355C197.383 118.912 199.533 120.332 203.294 120.332C208.399 120.332 211.416 117.566 211.416 112.659ZM224.653 139.196V133.895C224.653 133.783 224.677 133.673 224.725 133.573C224.773 133.472 224.842 133.383 224.928 133.313C225.014 133.242 225.115 133.192 225.223 133.166C225.331 133.139 225.443 133.137 225.552 133.159C226.455 133.33 227.372 133.416 228.291 133.418C229.87 133.496 231.431 133.041 232.721 132.125C234.012 131.209 234.959 129.885 235.41 128.366L235.793 127.144C235.848 126.98 235.848 126.801 235.793 126.637L223.527 95.0779C223.481 94.9633 223.464 94.839 223.478 94.7163C223.498 94.5308 223.586 94.3591 223.725 94.2348C223.863 94.1105 224.043 94.0423 224.23 94.0436H230.171C230.323 94.044 230.472 94.0907 230.597 94.1774C230.723 94.2641 230.819 94.3868 230.874 94.5295L239.203 116.79C239.253 116.939 239.349 117.068 239.477 117.16C239.605 117.251 239.758 117.3 239.915 117.299C240.072 117.299 240.225 117.25 240.353 117.159C240.48 117.067 240.577 116.939 240.628 116.79L247.862 94.5911C247.912 94.4394 248.009 94.3076 248.139 94.2146C248.269 94.1216 248.425 94.0722 248.584 94.0735H254.733C254.857 94.0739 254.978 94.1042 255.087 94.1618C255.196 94.2194 255.29 94.3027 255.36 94.4044C255.43 94.5061 255.474 94.6232 255.489 94.7459C255.505 94.8686 255.49 94.9931 255.447 95.1088L242.323 130.156C239.305 138.306 234.129 140.387 228.425 140.387C227.344 140.416 226.265 140.287 225.221 140.004C225.046 139.958 224.894 139.852 224.79 139.704C224.686 139.556 224.637 139.376 224.653 139.196ZM114.966 75.6433C107.154 75.5879 99.6174 78.5337 93.9065 83.875C93.6613 84.0994 93.5086 84.4073 93.4781 84.7386C93.4475 85.0699 93.5414 85.4006 93.7414 85.6662L97.2755 90.5015C97.3903 90.6625 97.5388 90.7964 97.7106 90.8939C97.8824 90.9914 98.0735 91.0501 98.2703 91.0659C98.4672 91.0816 98.6651 91.0541 98.8502 90.9851C99.0353 90.9162 99.2031 90.8076 99.3419 90.6668C101.395 88.6096 103.837 86.9831 106.525 85.8826C109.213 84.782 112.093 84.2295 114.996 84.2572C127.118 84.2572 133.451 93.4008 133.451 102.429C133.451 112.245 126.797 119.151 117.239 119.285C109.851 119.285 104.281 114.378 104.281 107.895C104.289 106.258 104.659 104.642 105.364 103.165C106.07 101.689 107.094 100.387 108.363 99.3545C108.632 99.1303 108.802 98.8094 108.837 98.4607C108.872 98.112 108.768 97.7636 108.549 97.4904L104.829 92.7897C104.716 92.6474 104.577 92.5291 104.418 92.4419C104.259 92.3547 104.084 92.3004 103.904 92.2821C103.724 92.2638 103.542 92.2819 103.369 92.3354C103.196 92.3889 103.035 92.4767 102.897 92.5935C100.615 94.4355 98.7732 96.7659 97.5072 99.4139C96.2412 102.062 95.5828 104.96 95.5803 107.896C95.5803 119.057 105.045 127.807 117.167 127.879H117.331C131.726 127.693 142.132 117.007 142.132 102.409C142.132 89.4456 132.605 75.6433 114.966 75.6433Z" fill="white"/>
</g>
<defs>
<filter id="filter0_dd_805_63905" x="0" y="0" width="350" height="255" filterUnits="userSpaceOnUse" color-interpolation-filters="sRGB">
<feFlood flood-opacity="0" result="BackgroundImageFix"/>
<feColorMatrix in="SourceAlpha" type="matrix" values="0 0 0 0 0 0 0 0 0 0 0 0 0 0 0 0 0 0 127 0" result="hardAlpha"/>
<feOffset dy="2"/>
<feGaussianBlur stdDeviation="10"/>
<feColorMatrix type="matrix" values="0 0 0 0 0.717647 0 0 0 0 0.717647 0 0 0 0 0.717647 0 0 0 0.08 0"/>
<feBlend mode="normal" in2="BackgroundImageFix" result="effect1_dropShadow_805_63905"/>
<feColorMatrix in="SourceAlpha" type="matrix" values="0 0 0 0 0 0 0 0 0 0 0 0 0 0 0 0 0 0 127 0" result="hardAlpha"/>
<feOffset dy="20"/>
<feGaussianBlur stdDeviation="20"/>
<feColorMatrix type="matrix" values="0 0 0 0 0.717647 0 0 0 0 0.717647 0 0 0 0 0.717647 0 0 0 0.08 0"/>
<feBlend mode="normal" in2="effect1_dropShadow_805_63905" result="effect2_dropShadow_805_63905"/>
<feBlend mode="normal" in="SourceGraphic" in2="effect2_dropShadow_805_63905" result="shape"/>
</filter>
</defs>
</svg>
