<svg width="348" height="253" viewBox="0 0 348 253" fill="none" xmlns="http://www.w3.org/2000/svg">
<g filter="url(#filter0_dd_805_63911)">
<rect x="40" y="20" width="268" height="173" rx="8" fill="#635BFF"/>
<path d="M181.787 77.483L168.173 80.4106V69.3509L181.787 66.4775V77.483Z" fill="white"/>
<path d="M126.463 72.7658L113.229 75.5846L113.175 119.005C113.175 127.028 119.195 132.936 127.222 132.936C131.67 132.936 134.924 132.123 136.714 131.148V120.143C134.978 120.848 126.409 123.342 126.409 115.319V96.0751H136.714V84.5289H126.409L126.463 72.7658Z" fill="white"/>
<path fill-rule="evenodd" clip-rule="evenodd" d="M271.334 108.434C271.334 94.5567 264.608 83.6067 251.754 83.6067C238.845 83.6067 231.035 94.5567 231.035 108.326C231.035 124.642 240.255 132.882 253.49 132.882C259.944 132.882 264.825 131.418 268.514 129.358V118.517C264.825 120.36 260.595 121.498 255.225 121.498C249.964 121.498 245.3 119.655 244.703 113.258H271.225C271.225 112.96 271.245 112.281 271.267 111.499L271.267 111.497L271.268 111.495L271.268 111.494C271.298 110.432 271.334 109.182 271.334 108.434ZM244.54 103.285C244.54 97.1586 248.282 94.6105 251.699 94.6105C255.008 94.6105 258.533 97.1586 258.533 103.285H244.54Z" fill="white"/>
<path d="M94.4095 95.3708C91.5348 95.3708 89.7992 96.1839 89.7992 98.298C89.7992 100.606 92.7862 101.622 96.492 102.881C102.533 104.935 110.485 107.638 110.518 117.65C110.518 127.353 102.762 132.937 91.4806 132.937C86.8161 132.937 81.7177 132.015 76.6735 129.847V116.946C81.2295 119.439 86.9788 121.282 91.4806 121.282C94.5179 121.282 96.6875 120.469 96.6875 117.975C96.6875 115.419 93.4495 114.25 89.5403 112.839C83.5869 110.69 76.0769 107.98 76.0769 98.9485C76.0769 89.3537 83.3991 83.6077 94.4095 83.6077C98.9113 83.6077 103.359 84.3124 107.861 86.1012V98.8401C103.738 96.6176 98.5316 95.3708 94.4095 95.3708Z" fill="white"/>
<path d="M153.583 88.5399L152.715 84.5286H141V131.96H154.56V99.8152C157.76 95.6412 163.183 96.4001 164.865 96.9964V84.5286C163.129 83.8781 156.783 82.6855 153.583 88.5399Z" fill="white"/>
<path d="M168.172 84.5293H181.786V131.961H168.172V84.5293Z" fill="white"/>
<path fill-rule="evenodd" clip-rule="evenodd" d="M199.467 87.8349C201.366 86.1003 204.783 83.6067 210.098 83.6067C219.59 83.6067 228.539 92.1716 228.593 107.892C228.593 125.076 219.752 132.882 210.044 132.882C205.271 132.882 202.396 130.876 200.444 129.467L200.389 144.807L186.83 147.68V84.4741H198.762L199.467 87.8349ZM200.444 118.411C201.746 119.82 203.644 120.959 206.844 120.959C211.834 120.959 215.197 115.537 215.197 108.273C215.197 101.171 211.78 95.6408 206.844 95.6408C203.752 95.6408 201.8 96.7251 200.39 98.2973L200.444 118.411Z" fill="white"/>
</g>
<defs>
<filter id="filter0_dd_805_63911" x="0" y="0" width="348" height="253" filterUnits="userSpaceOnUse" color-interpolation-filters="sRGB">
<feFlood flood-opacity="0" result="BackgroundImageFix"/>
<feColorMatrix in="SourceAlpha" type="matrix" values="0 0 0 0 0 0 0 0 0 0 0 0 0 0 0 0 0 0 127 0" result="hardAlpha"/>
<feOffset dy="2"/>
<feGaussianBlur stdDeviation="10"/>
<feColorMatrix type="matrix" values="0 0 0 0 0.717647 0 0 0 0 0.717647 0 0 0 0 0.717647 0 0 0 0.08 0"/>
<feBlend mode="normal" in2="BackgroundImageFix" result="effect1_dropShadow_805_63911"/>
<feColorMatrix in="SourceAlpha" type="matrix" values="0 0 0 0 0 0 0 0 0 0 0 0 0 0 0 0 0 0 127 0" result="hardAlpha"/>
<feOffset dy="20"/>
<feGaussianBlur stdDeviation="20"/>
<feColorMatrix type="matrix" values="0 0 0 0 0.717647 0 0 0 0 0.717647 0 0 0 0 0.717647 0 0 0 0.08 0"/>
<feBlend mode="normal" in2="effect1_dropShadow_805_63911" result="effect2_dropShadow_805_63911"/>
<feBlend mode="normal" in="SourceGraphic" in2="effect2_dropShadow_805_63911" result="shape"/>
</filter>
</defs>
</svg>
