<?xml version="1.0" standalone="no"?>
<!DOCTYPE svg PUBLIC "-//W3C//DTD SVG 20010904//EN"
 "http://www.w3.org/TR/2001/REC-SVG-20010904/DTD/svg10.dtd">
<svg version="1.0" xmlns="http://www.w3.org/2000/svg"
 width="512.000000pt" height="512.000000pt" viewBox="0 0 512.000000 512.000000"
 preserveAspectRatio="xMidYMid meet">
<metadata>
Created by potrace 1.14, written by Peter Selinger 2001-2017
</metadata>
<g transform="translate(0.000000,512.000000) scale(0.100000,-0.100000)"
fill="#000000" stroke="none">
<path d="M3143 4075 c-85 -19 -170 -66 -230 -128 -28 -29 -110 -122 -181 -207
l-130 -155 601 -5 c667 -7 655 -5 751 -74 62 -44 100 -90 134 -163 36 -78 37
-199 4 -285 -27 -66 -94 -146 -155 -181 -99 -58 -78 -57 -962 -57 -461 0 -834
-4 -861 -9 -78 -15 -155 -48 -209 -89 -44 -33 -363 -396 -364 -414 -1 -4 515
-9 1147 -10 l1147 -3 67 -33 c136 -67 212 -189 212 -337 -1 -150 -77 -271
-212 -337 l-67 -33 -1400 -5 -1400 -5 -60 -23 c-108 -41 -160 -86 -327 -286
-87 -103 -158 -192 -158 -197 0 -6 603 -8 1673 -6 1814 4 1698 0 1860 56 324
113 565 414 607 759 27 221 -59 490 -208 653 l-50 54 65 80 c147 182 220 424
193 640 -39 312 -228 576 -514 715 -174 85 -220 92 -591 96 -248 3 -334 0
-382 -11z"/>
</g>
</svg>
